<?xml version='1.0' encoding='UTF-8' standalone='no'?>
<!-- Created with Fritzing (http://www.fritzing.org/) -->
<svg xmlns:svg='http://www.w3.org/2000/svg' xmlns='http://www.w3.org/2000/svg' version='1.2' baseProfile='tiny' x='0in' y='0in' width='4.23434in' height='2.40749in' viewBox='0 0 304.872 173.339' >
<g partID='854189300'><g transform='translate(17.0124,128.698)' ><g transform='matrix(0,1,-1,0,0,0)'  ><g id="schematic" xmlns="http://www.w3.org/2000/svg">
<line stroke-width="0.72" x2="14.75" y2="4.9062" stroke-linecap="round" x1="7.54999" stroke="#000000" xmlns="http://www.w3.org/2000/svg" y1="8.50619" class="other"/>
<line stroke-width="0.36" x2="16.55" y2="15.7062" stroke-linecap="round" x1="14.75" stroke="#000000" xmlns="http://www.w3.org/2000/svg" y1="15.7062" class="other"/>
<line stroke-width="0.432" x2="16.55" y2="1.3062" stroke-linecap="round" x1="14.75" stroke="#000000" xmlns="http://www.w3.org/2000/svg" y1="1.3062" class="other"/>
<circle stroke-width="0.576" cx="14.75" cy="1.3062" stroke="#000000" fill="none" xmlns="http://www.w3.org/2000/svg" r="1.0182" class="other"/>
<circle stroke-width="0.576" cx="14.75" cy="15.7062" stroke="#000000" fill="none" xmlns="http://www.w3.org/2000/svg" r="1.0182" class="other"/>
<circle stroke-width="0.576" cx="7.54999" cy="8.50619" stroke="#000000" fill="none" xmlns="http://www.w3.org/2000/svg" r="1.0182" class="other"/>
<line stroke-width="0.699999" x2="7.54999" y2="8.50619" id="connector1pin" stroke-linecap="round" x1="0.349999" stroke="#787878" xmlns="http://www.w3.org/2000/svg" connectorname="P" y1="8.50619" class="pin"/>
<g stroke-width="0" id="connector1terminal" height="0.000283464" x="0.349999" stroke="none" fill="none" xmlns="http://www.w3.org/2000/svg" y="8.50619" width="0.000283465" class="terminal"/>
<text stroke-width="0" text-anchor="middle" font-family="'Droid Sans'" x="3.94999" stroke="none" fill="#8c8c8c" xmlns="http://www.w3.org/2000/svg" y="7.45618" class="text" font-size="2.5">2</text>
<line stroke-width="0.699999" x2="14.75" y2="15.7062" id="connector2pin" stroke-linecap="round" x1="21.95" stroke="#787878" xmlns="http://www.w3.org/2000/svg" connectorname="S" y1="15.7062" class="pin"/>
<g stroke-width="0" id="connector2terminal" height="0.000283464" x="21.95" stroke="none" fill="none" xmlns="http://www.w3.org/2000/svg" y="15.7062" width="0.000283465" class="terminal"/>
<text stroke-width="0" text-anchor="middle" font-family="'Droid Sans'" x="18.35" stroke="none" fill="#8c8c8c" xmlns="http://www.w3.org/2000/svg" y="14.6562" class="text" font-size="2.5">3</text>
<line stroke-width="0.699999" x2="14.75" y2="1.3062" id="connector0pin" stroke-linecap="round" x1="21.95" stroke="#787878" xmlns="http://www.w3.org/2000/svg" connectorname="O" y1="1.3062" class="pin"/>
<g stroke-width="0" id="connector0terminal" height="0.000283464" x="21.95" stroke="none" fill="none" xmlns="http://www.w3.org/2000/svg" y="1.3062" width="0.000283465" class="terminal"/>
<text stroke-width="0" text-anchor="middle" font-family="'Droid Sans'" x="18.35" stroke="none" fill="#8c8c8c" xmlns="http://www.w3.org/2000/svg" y="0.256206" class="text" font-size="2.5">1</text>
</g>
</g></g></g><g partID='854189610'><g transform='translate(41.4822,92.6977)' ><g transform='matrix(0,1,-1,0,0,0)'  ><g id="schematic" xmlns="http://www.w3.org/2000/svg">
<line stroke-width="1.152" x2="11.15" y2="22.176" stroke-linecap="round" x1="11.15" stroke="#000000" xmlns="http://www.w3.org/2000/svg" y1="0.576" class="other"/>
<line stroke-width="1.152" x2="14.75" y2="14.976" stroke-linecap="round" x1="14.75" stroke="#000000" xmlns="http://www.w3.org/2000/svg" y1="7.776" class="other"/>
<line stroke-width="1.152" x2="18.3501" y2="22.176" stroke-linecap="round" x1="18.3501" stroke="#000000" xmlns="http://www.w3.org/2000/svg" y1="0.576" class="other"/>
<line stroke-width="1.152" x2="21.9501" y2="14.976" stroke-linecap="round" x1="21.9501" stroke="#000000" xmlns="http://www.w3.org/2000/svg" y1="7.776" class="other"/>
<line stroke-width="0.432002" x2="10.43" y2="11.376" stroke-linecap="round" x1="7.55002" stroke="#000000" xmlns="http://www.w3.org/2000/svg" y1="11.376" class="other"/>
<line stroke-width="0.700001" x2="21.9501" y2="11.376" id="connector0pin" stroke-linecap="round" x1="29.1502" stroke="#787878" xmlns="http://www.w3.org/2000/svg" connectorname="-" y1="11.376" class="pin"/>
<g stroke-width="0" id="connector0terminal" height="0.000283465" x="29.1502" stroke="none" fill="none" xmlns="http://www.w3.org/2000/svg" y="11.376" width="0.000283466" class="terminal"/>
<text stroke-width="0" text-anchor="middle" font-family="'Droid Sans'" x="25.5501" stroke="none" fill="#8c8c8c" xmlns="http://www.w3.org/2000/svg" y="10.326" class="text" font-size="2.50001">1</text>
<line stroke-width="0.700001" x2="7.55002" y2="11.376" id="connector1pin" stroke-linecap="round" x1="0.350001" stroke="#787878" xmlns="http://www.w3.org/2000/svg" connectorname="+" y1="11.376" class="pin"/>
<g stroke-width="0" id="connector1terminal" height="0.000283465" x="0.350001" stroke="none" fill="none" xmlns="http://www.w3.org/2000/svg" y="11.376" width="0.000283466" class="terminal"/>
<text stroke-width="0" text-anchor="middle" font-family="'Droid Sans'" x="3.95001" stroke="none" fill="#8c8c8c" xmlns="http://www.w3.org/2000/svg" y="10.326" class="text" font-size="2.50001">2</text>
</g>
</g></g></g><g partID='854168730'><g transform='translate(37.3058,21.048)' ><g gorn="0.0" id="schematic">
<rect stroke-width="0.9" height="42.3" stroke-linecap="round" x="0.45" stroke="#000000" fill="#FFFFFF" width="27.9" y="14.85" class="interior rect"/>
<line stroke-width="0" gorn="0.0.1" x2="14.4" y2="71.6499" id="connector8pin" stroke-linecap="round" x1="14.4" stroke="none" fill="none" y1="57.2499" class="pin"/>
<g stroke-width="0" gorn="0.0.2" height="0.699999" id="connector8terminal" x="14.05" stroke="none" fill="none" width="0.699999" y="71.6499" class="terminal"/>
<line stroke-width="0.699999" gorn="0.0.3" x2="14.4" y2="71.6499" id="connector10pin" stroke-linecap="round" x1="14.4" stroke="#787878" fill="none" y1="57.2499" class="pin"/>
<g transform="matrix(1, 0, 0, 1, 15.1, 55.8499)">
<g>
<g>
<g transform="rotate(270)">
<g>
<g>
<text stroke-width="0" text-anchor="start" font-family="'Droid Sans'" x="0" stroke="none" fill="#8c8c8c" y="0" class="text" font-size="3.49999">GND</text>
</g>
</g>
</g>
</g>
</g>
</g>
<g stroke-width="0" gorn="0.0.5" height="0.699999" id="connector10terminal" x="14.05" stroke="none" fill="none" width="0.699999" y="71.6499" class="terminal"/>
<line stroke-width="0" gorn="0.0.6" x2="14.4" y2="14.75" id="connector9pin" stroke-linecap="round" x1="14.4" stroke="none" fill="none" y1="0.349999" class="pin"/>
<g stroke-width="0" gorn="0.0.7" height="0.699999" id="connector9terminal" x="14.05" stroke="none" fill="none" width="0.699999" y="-0.349999" class="terminal"/>
<line stroke-width="0.699999" gorn="0.0.8" x2="14.4" y2="14.75" id="connector11pin" stroke-linecap="round" x1="14.4" stroke="#787878" fill="none" y1="0.349999" class="pin"/>
<g transform="matrix(1, 0, 0, 1, 15.1, 16.15)">
<g>
<g>
<g transform="rotate(270)">
<g>
<g>
<text stroke-width="0" text-anchor="end" font-family="'Droid Sans'" x="0" stroke="none" fill="#8c8c8c" y="0" class="text" font-size="3.49999">VBAT</text>
</g>
</g>
</g>
</g>
</g>
</g>
<g stroke-width="0" gorn="0.0.10" height="0.699999" id="connector11terminal" x="14.05" stroke="none" fill="none" width="0.699999" y="-0.349999" class="terminal"/>
<text stroke-width="0" text-anchor="middle" gorn="0.0.11" font-family="'Droid Sans'" id="label" x="14.85" stroke="none" fill="#000000" y="35.1833" class="text" font-size="4.25001">USB</text>
<text stroke-width="0" text-anchor="middle" gorn="0.0.12" font-family="'Droid Sans'" id="label" x="14.85" stroke="none" fill="#000000" y="39.7168" class="text" font-size="4.25001">LiPoly</text>
<text stroke-width="0" text-anchor="middle" gorn="0.0.13" font-family="'Droid Sans'" id="label" x="14.85" stroke="none" fill="#000000" y="44.2505" class="text" font-size="4.25001">Charger</text>
</g>
</g></g><g partID='58350'><g transform='translate(120.098,157.869)' ><g transform='matrix(0,-1,1,0,0,0)'  ><g gorn="0.1" id="schematic" xmlns="http://www.w3.org/2000/svg">
<line stroke-width="0.7" gorn="0.1.0" x2="7.346" y2="3.6" id="connector0pin" stroke-linecap="round" x1="0.35" fill="none" stroke="#000000" stroke-linejoin="round" xmlns="http://www.w3.org/2000/svg" y1="3.6"/>
<g gorn="0.1.1" height="0.208" id="connector0terminal" x="-0.252" fill="none" xmlns="http://www.w3.org/2000/svg" width="0.546" y="3.504"/>
<polyline stroke-width="0.7" points="14.1,5.557,9.928,3.6,14.1,1.643" stroke-linecap="round" fill="none" stroke="#000000" stroke-linejoin="round" xmlns="http://www.w3.org/2000/svg"/>
<line stroke-width="0.7" gorn="0.1.3" x2="4.804" y2="3.6" id="line" stroke-linecap="round" x1="10.11" fill="none" stroke="#000000" stroke-linejoin="round" xmlns="http://www.w3.org/2000/svg" y1="3.6"/>
<text text-anchor="middle" stroke-width="0" font-family="'Droid Sans'" x="5.05" fill="#8c8c8c" stroke="none" xmlns="http://www.w3.org/2000/svg" y="2.58" class="text" font-size="2.5">1</text>
<line stroke-width="0.7" gorn="0.1.5" x2="7.346" y2="10.8" id="connector1pin" stroke-linecap="round" x1="0.35" fill="none" stroke="#000000" stroke-linejoin="round" xmlns="http://www.w3.org/2000/svg" y1="10.8"/>
<g gorn="0.1.6" height="0.208" id="connector1terminal" x="-0.252" fill="none" xmlns="http://www.w3.org/2000/svg" width="0.546" y="10.704"/>
<polyline stroke-width="0.7" points="14.1,12.757,9.928,10.8,14.1,8.843" stroke-linecap="round" fill="none" stroke="#000000" stroke-linejoin="round" xmlns="http://www.w3.org/2000/svg"/>
<line stroke-width="0.7" gorn="0.1.8" x2="4.804" y2="10.8" id="line" stroke-linecap="round" x1="10.11" fill="none" stroke="#000000" stroke-linejoin="round" xmlns="http://www.w3.org/2000/svg" y1="10.8"/>
<text text-anchor="middle" stroke-width="0" font-family="'Droid Sans'" x="5.05" fill="#8c8c8c" stroke="none" xmlns="http://www.w3.org/2000/svg" y="9.78" class="text" font-size="2.5">2</text>
<line stroke-width="0.7" gorn="0.1.10" x2="7.346" y2="18" id="connector2pin" stroke-linecap="round" x1="0.35" fill="none" stroke="#000000" stroke-linejoin="round" xmlns="http://www.w3.org/2000/svg" y1="18"/>
<g gorn="0.1.11" height="0.208" id="connector2terminal" x="-0.252" fill="none" xmlns="http://www.w3.org/2000/svg" width="0.546" y="17.904"/>
<polyline stroke-width="0.7" points="14.1,19.957,9.928,18,14.1,16.043" stroke-linecap="round" fill="none" stroke="#000000" stroke-linejoin="round" xmlns="http://www.w3.org/2000/svg"/>
<line stroke-width="0.7" gorn="0.1.13" x2="4.804" y2="18" id="line" stroke-linecap="round" x1="10.11" fill="none" stroke="#000000" stroke-linejoin="round" xmlns="http://www.w3.org/2000/svg" y1="18"/>
<text text-anchor="middle" stroke-width="0" font-family="'Droid Sans'" x="5.05" fill="#8c8c8c" stroke="none" xmlns="http://www.w3.org/2000/svg" y="16.98" class="text" font-size="2.5">3</text>
<line stroke-width="0.7" gorn="0.1.15" x2="7.346" y2="25.2" id="connector3pin" stroke-linecap="round" x1="0.35" fill="none" stroke="#000000" stroke-linejoin="round" xmlns="http://www.w3.org/2000/svg" y1="25.2"/>
<g gorn="0.1.16" height="0.208" id="connector3terminal" x="-0.252" fill="none" xmlns="http://www.w3.org/2000/svg" width="0.546" y="25.104"/>
<polyline stroke-width="0.7" points="14.1,27.157,9.928,25.2,14.1,23.243" stroke-linecap="round" fill="none" stroke="#000000" stroke-linejoin="round" xmlns="http://www.w3.org/2000/svg"/>
<line stroke-width="0.7" gorn="0.1.18" x2="4.804" y2="25.2" id="line" stroke-linecap="round" x1="10.11" fill="none" stroke="#000000" stroke-linejoin="round" xmlns="http://www.w3.org/2000/svg" y1="25.2"/>
<text text-anchor="middle" stroke-width="0" font-family="'Droid Sans'" x="5.05" fill="#8c8c8c" stroke="none" xmlns="http://www.w3.org/2000/svg" y="24.18" class="text" font-size="2.5">4</text>
<line stroke-width="0.7" gorn="0.1.20" x2="7.346" y2="32.4" id="connector4pin" stroke-linecap="round" x1="0.35" fill="none" stroke="#000000" stroke-linejoin="round" xmlns="http://www.w3.org/2000/svg" y1="32.4"/>
<g gorn="0.1.21" height="0.208" id="connector4terminal" x="-0.252" fill="none" xmlns="http://www.w3.org/2000/svg" width="0.546" y="32.304"/>
<polyline stroke-width="0.7" points="14.1,34.357,9.928,32.4,14.1,30.443" stroke-linecap="round" fill="none" stroke="#000000" stroke-linejoin="round" xmlns="http://www.w3.org/2000/svg"/>
<line stroke-width="0.7" gorn="0.1.23" x2="4.804" y2="32.4" id="line" stroke-linecap="round" x1="10.11" fill="none" stroke="#000000" stroke-linejoin="round" xmlns="http://www.w3.org/2000/svg" y1="32.4"/>
<text text-anchor="middle" stroke-width="0" font-family="'Droid Sans'" x="5.05" fill="#8c8c8c" stroke="none" xmlns="http://www.w3.org/2000/svg" y="31.38" class="text" font-size="2.5">5</text>
<line stroke-width="0.7" gorn="0.1.25" x2="7.346" y2="39.6" id="connector5pin" stroke-linecap="round" x1="0.35" fill="none" stroke="#000000" stroke-linejoin="round" xmlns="http://www.w3.org/2000/svg" y1="39.6"/>
<g gorn="0.1.26" height="0.208" id="connector5terminal" x="-0.252" fill="none" xmlns="http://www.w3.org/2000/svg" width="0.546" y="39.504"/>
<polyline stroke-width="0.7" points="14.1,41.557,9.928,39.6,14.1,37.643" stroke-linecap="round" fill="none" stroke="#000000" stroke-linejoin="round" xmlns="http://www.w3.org/2000/svg"/>
<line stroke-width="0.7" gorn="0.1.28" x2="4.804" y2="39.6" id="line" stroke-linecap="round" x1="10.11" fill="none" stroke="#000000" stroke-linejoin="round" xmlns="http://www.w3.org/2000/svg" y1="39.6"/>
<text text-anchor="middle" stroke-width="0" font-family="'Droid Sans'" x="5.05" fill="#8c8c8c" stroke="none" xmlns="http://www.w3.org/2000/svg" y="38.58" class="text" font-size="2.5">6</text>
<line stroke-width="0.7" gorn="0.1.30" x2="7.346" y2="46.8" id="connector6pin" stroke-linecap="round" x1="0.35" fill="none" stroke="#000000" stroke-linejoin="round" xmlns="http://www.w3.org/2000/svg" y1="46.8"/>
<g gorn="0.1.31" height="0.208" id="connector6terminal" x="-0.252" fill="none" xmlns="http://www.w3.org/2000/svg" width="0.546" y="46.704"/>
<polyline stroke-width="0.7" points="14.1,48.757,9.928,46.8,14.1,44.843" stroke-linecap="round" fill="none" stroke="#000000" stroke-linejoin="round" xmlns="http://www.w3.org/2000/svg"/>
<line stroke-width="0.7" gorn="0.1.33" x2="4.804" y2="46.8" id="line" stroke-linecap="round" x1="10.11" fill="none" stroke="#000000" stroke-linejoin="round" xmlns="http://www.w3.org/2000/svg" y1="46.8"/>
<text text-anchor="middle" stroke-width="0" font-family="'Droid Sans'" x="5.05" fill="#8c8c8c" stroke="none" xmlns="http://www.w3.org/2000/svg" y="45.78" class="text" font-size="2.5">7</text>
<line stroke-width="0.7" gorn="0.1.35" x2="7.346" y2="54" id="connector7pin" stroke-linecap="round" x1="0.35" fill="none" stroke="#000000" stroke-linejoin="round" xmlns="http://www.w3.org/2000/svg" y1="54"/>
<g gorn="0.1.36" height="0.208" id="connector7terminal" x="-0.252" fill="none" xmlns="http://www.w3.org/2000/svg" width="0.546" y="53.904"/>
<polyline stroke-width="0.7" points="14.1,55.957,9.928,54,14.1,52.043" stroke-linecap="round" fill="none" stroke="#000000" stroke-linejoin="round" xmlns="http://www.w3.org/2000/svg"/>
<line stroke-width="0.7" gorn="0.1.38" x2="4.804" y2="54" id="line" stroke-linecap="round" x1="10.11" fill="none" stroke="#000000" stroke-linejoin="round" xmlns="http://www.w3.org/2000/svg" y1="54"/>
<text text-anchor="middle" stroke-width="0" font-family="'Droid Sans'" x="5.05" fill="#8c8c8c" stroke="none" xmlns="http://www.w3.org/2000/svg" y="52.98" class="text" font-size="2.5">8</text>
</g>
</g></g></g><g partID='854101230'><g transform='translate(288.871,67.347)' ><g transform='matrix(0,1,-1,0,0,0)'  ><g id="schematic" xmlns="http://www.w3.org/2000/svg">
<path d="M34.179,9.778l0.875,0c0.188,0,0.354,0.015,0.495,0.043c0.144,0.029,0.265,0.075,0.356,0.139c0.099,0.063,0.171,0.147,0.218,0.251c0.049,0.103,0.071,0.23,0.071,0.381c0,0.091,-0.014,0.176,-0.043,0.255c-0.026,0.079,-0.067,0.148,-0.123,0.209c-0.055,0.06,-0.12,0.11,-0.2,0.15s-0.17,0.066,-0.271,0.08l0,0.021c0.102,0.018,0.195,0.043,0.284,0.076c0.089,0.033,0.166,0.078,0.229,0.137c0.066,0.058,0.119,0.131,0.156,0.219c0.039,0.088,0.06,0.194,0.06,0.32c0,0.146,-0.024,0.277,-0.072,0.393c-0.047,0.114,-0.116,0.212,-0.207,0.292c-0.09,0.08,-0.198,0.141,-0.327,0.184c-0.13,0.042,-0.273,0.063,-0.438,0.063l-1.063,0L34.179,9.778zM34.586,11.142l0.535,0c0.123,0,0.228,-0.012,0.312,-0.033c0.084,-0.022,0.149,-0.055,0.201,-0.098c0.053,-0.044,0.09,-0.098,0.11,-0.163c0.022,-0.065,0.034,-0.141,0.034,-0.228c0,-0.176,-0.057,-0.302,-0.17,-0.378c-0.112,-0.076,-0.291,-0.114,-0.532,-0.114l-0.49,0L34.586,11.142zM34.586,11.483l0,1.16l0.584,0c0.129,0,0.235,-0.014,0.324,-0.043c0.088,-0.029,0.157,-0.07,0.211,-0.123s0.092,-0.116,0.114,-0.19c0.022,-0.074,0.035,-0.155,0.035,-0.245c0,-0.082,-0.013,-0.157,-0.037,-0.227c-0.022,-0.068,-0.063,-0.128,-0.116,-0.177c-0.056,-0.049,-0.13,-0.087,-0.22,-0.114c-0.092,-0.027,-0.205,-0.041,-0.338,-0.041L34.586,11.483z" fill="#787878" xmlns="http://www.w3.org/2000/svg"/>
<path d="M18.565,15.1c-0.193,0,-0.35,-0.157,-0.35,-0.35l0,-7.2c0,-0.193,0.157,-0.35,0.35,-0.35s0.35,0.157,0.35,0.35l0,7.2C18.916,14.943,18.758,15.1,18.565,15.1z" xmlns="http://www.w3.org/2000/svg"/>
<path d="M18.565,7.55L18.565,7.55L18.565,7.55z" fill="none" xmlns="http://www.w3.org/2000/svg"/>
<path d="M21.059,11.295l1.063,0l0,1.575c-0.081,0.026,-0.162,0.05,-0.243,0.07c-0.083,0.021,-0.167,0.038,-0.254,0.052c-0.086,0.014,-0.178,0.024,-0.271,0.032c-0.096,0.007,-0.197,0.011,-0.309,0.011c-0.229,0,-0.434,-0.038,-0.61,-0.115c-0.176,-0.077,-0.327,-0.187,-0.448,-0.33c-0.121,-0.143,-0.213,-0.316,-0.276,-0.521c-0.063,-0.205,-0.095,-0.434,-0.095,-0.688c0,-0.252,0.035,-0.479,0.104,-0.684c0.07,-0.203,0.171,-0.377,0.305,-0.521c0.133,-0.143,0.297,-0.253,0.493,-0.33c0.195,-0.076,0.418,-0.115,0.668,-0.115c0.163,0,0.318,0.017,0.47,0.049c0.147,0.032,0.287,0.079,0.418,0.141l-0.158,0.355c-0.053,-0.024,-0.11,-0.048,-0.172,-0.07c-0.062,-0.021,-0.123,-0.041,-0.188,-0.058c-0.064,-0.018,-0.131,-0.03,-0.197,-0.041c-0.068,-0.01,-0.137,-0.016,-0.205,-0.016c-0.178,0,-0.336,0.03,-0.475,0.089c-0.137,0.06,-0.252,0.146,-0.346,0.257c-0.094,0.111,-0.164,0.246,-0.211,0.406c-0.049,0.159,-0.073,0.34,-0.073,0.54c0,0.19,0.021,0.365,0.062,0.523c0.039,0.158,0.104,0.294,0.191,0.408c0.088,0.114,0.201,0.203,0.34,0.267c0.141,0.063,0.307,0.094,0.504,0.094c0.064,0,0.123,-0.002,0.178,-0.005c0.054,-0.004,0.103,-0.009,0.146,-0.015c0.046,-0.006,0.089,-0.013,0.129,-0.021c0.041,-0.009,0.08,-0.016,0.117,-0.023l0,-0.958L21.06,11.653L21.059,11.295L21.059,11.295z" fill="#787878" xmlns="http://www.w3.org/2000/svg"/>
<path d="M32.963,15.1c-0.192,0,-0.351,-0.157,-0.351,-0.35L32.612,7.9L4.515,7.9l0,6.85c0,0.193,-0.157,0.35,-0.35,0.35s-0.35,-0.157,-0.35,-0.35L3.815,7.2l29.499,0l0,7.55C33.313,14.943,33.155,15.1,32.963,15.1z" xmlns="http://www.w3.org/2000/svg"/>
<path d="M5.787,11.664l0,1.327L5.379,12.991L5.379,9.778l0.782,0c0.389,0,0.677,0.076,0.863,0.227c0.186,0.151,0.279,0.38,0.279,0.686c0,0.128,-0.018,0.239,-0.054,0.334c-0.036,0.096,-0.083,0.177,-0.143,0.245s-0.127,0.125,-0.204,0.171c-0.076,0.045,-0.154,0.082,-0.235,0.111l0.875,1.439L7.061,12.991L6.29,11.664L5.787,11.664zM5.787,11.317l0.36,0c0.132,0,0.244,-0.014,0.336,-0.039c0.092,-0.025,0.168,-0.063,0.228,-0.114c0.059,-0.051,0.103,-0.113,0.129,-0.188c0.027,-0.076,0.041,-0.164,0.041,-0.266c0,-0.105,-0.015,-0.194,-0.045,-0.268c-0.03,-0.073,-0.075,-0.133,-0.136,-0.18c-0.061,-0.046,-0.138,-0.08,-0.231,-0.102c-0.093,-0.021,-0.203,-0.032,-0.331,-0.032L5.787,10.128L5.787,11.317z" fill="#787878" xmlns="http://www.w3.org/2000/svg"/>
<path d="M36.563,15.1l-3.602,0c-0.193,0,-0.35,-0.157,-0.35,-0.35s0.156,-0.35,0.35,-0.35l3.602,0c0.193,0,0.352,0.157,0.352,0.35S36.758,15.1,36.563,15.1z" xmlns="http://www.w3.org/2000/svg"/>
<path d="M32.963,15.1l-3.598,0c-0.193,0,-0.351,-0.157,-0.351,-0.35s0.155,-0.35,0.351,-0.35l3.598,0c0.192,0,0.351,0.157,0.351,0.35S33.155,15.1,32.963,15.1z" xmlns="http://www.w3.org/2000/svg"/>
<polygon points="36.563,21.951,32.963,21.951,29.365,21.951,32.963,14.75" fill="#FFFFFF" xmlns="http://www.w3.org/2000/svg"/>
<path d="M37.131,22.3l-8.332,0l4.164,-8.333L37.131,22.3zM29.933,21.599l6.065,0l-3.035,-6.066L29.933,21.599z" xmlns="http://www.w3.org/2000/svg"/>
<path d="M32.963,22.175c-0.124,0,-0.226,-0.102,-0.226,-0.225L32.737,14.75c0,-0.124,0.102,-0.225,0.226,-0.225s0.226,0.101,0.226,0.225l0,7.201C33.188,22.074,33.087,22.175,32.963,22.175z" xmlns="http://www.w3.org/2000/svg"/>
<path d="M37.582,16.414c-0.06,0,-0.115,-0.021,-0.159,-0.063c-0.088,-0.088,-0.088,-0.229,0,-0.317l2.34,-2.34c0.088,-0.088,0.229,-0.088,0.318,0c0.088,0.088,0.088,0.23,0,0.318L37.74,16.35C37.696,16.392,37.64,16.414,37.582,16.414z" xmlns="http://www.w3.org/2000/svg"/>
<path d="M37.224,13.176c-0.059,0,-0.115,-0.022,-0.158,-0.066c-0.09,-0.088,-0.09,-0.23,0,-0.318l2.34,-2.34c0.088,-0.088,0.229,-0.088,0.316,0s0.088,0.23,0,0.318l-2.34,2.34C37.338,13.154,37.278,13.176,37.224,13.176z" xmlns="http://www.w3.org/2000/svg"/>
<path d="M41.542,12.231l-1.08,2.52l-1.438,-1.439L41.542,12.231z" xmlns="http://www.w3.org/2000/svg"/>
<path d="M41.183,8.991l-1.078,2.52l-1.438,-1.438L41.183,8.991z" xmlns="http://www.w3.org/2000/svg"/>
<path d="M22.165,15.1l-3.599,0c-0.193,0,-0.35,-0.157,-0.35,-0.35s0.157,-0.35,0.35,-0.35l3.599,0c0.193,0,0.35,0.157,0.35,0.35S22.358,15.1,22.165,15.1z" xmlns="http://www.w3.org/2000/svg"/>
<path d="M18.565,15.1l-3.601,0c-0.193,0,-0.35,-0.157,-0.35,-0.35s0.157,-0.35,0.35,-0.35l3.601,0c0.193,0,0.35,0.157,0.35,0.35S18.758,15.1,18.565,15.1z" xmlns="http://www.w3.org/2000/svg"/>
<polygon points="22.165,21.951,18.565,21.951,14.964,21.951,18.565,14.75" fill="#FFFFFF" xmlns="http://www.w3.org/2000/svg"/>
<path d="M22.731,22.3l-8.333,0l4.167,-8.333L22.731,22.3zM15.53,21.599l6.067,0l-3.033,-6.066L15.53,21.599z" xmlns="http://www.w3.org/2000/svg"/>
<path d="M18.565,22.175c-0.124,0,-0.225,-0.102,-0.225,-0.225L18.34,14.75c0,-0.124,0.101,-0.225,0.225,-0.225s0.225,0.101,0.225,0.225l0,7.201C18.791,22.074,18.689,22.175,18.565,22.175z" xmlns="http://www.w3.org/2000/svg"/>
<path d="M23.183,16.414c-0.058,0,-0.113,-0.021,-0.158,-0.063c-0.088,-0.088,-0.088,-0.229,0,-0.317l2.342,-2.34c0.088,-0.088,0.229,-0.088,0.316,0c0.09,0.088,0.09,0.23,0,0.318l-2.341,2.339C23.298,16.392,23.24,16.414,23.183,16.414z" xmlns="http://www.w3.org/2000/svg"/>
<path d="M22.821,13.176c-0.057,0,-0.114,-0.022,-0.159,-0.066c-0.088,-0.088,-0.088,-0.23,0,-0.318l2.34,-2.34c0.088,-0.088,0.229,-0.088,0.317,0s0.088,0.23,0,0.318l-2.34,2.34C22.938,13.154,22.88,13.176,22.821,13.176z" xmlns="http://www.w3.org/2000/svg"/>
<path d="M27.144,12.231l-1.08,2.52l-1.438,-1.439L27.144,12.231z" xmlns="http://www.w3.org/2000/svg"/>
<path d="M26.783,8.991l-1.08,2.52l-1.438,-1.438L26.783,8.991z" xmlns="http://www.w3.org/2000/svg"/>
<path d="M7.766,15.1L4.165,15.1c-0.193,0,-0.35,-0.157,-0.35,-0.35s0.157,-0.35,0.35,-0.35l3.601,0c0.193,0,0.35,0.157,0.35,0.35S7.959,15.1,7.766,15.1z" xmlns="http://www.w3.org/2000/svg"/>
<path d="M4.165,15.1L0.566,15.1c-0.193,0,-0.35,-0.157,-0.35,-0.35s0.157,-0.35,0.35,-0.35l3.599,0c0.193,0,0.35,0.157,0.35,0.35S4.359,15.1,4.165,15.1z" xmlns="http://www.w3.org/2000/svg"/>
<polygon points="7.766,21.951,4.165,21.951,0.566,21.951,4.165,14.75" fill="#FFFFFF" xmlns="http://www.w3.org/2000/svg"/>
<path d="M8.332,22.3L0,22.3l4.166,-8.333L8.332,22.3zM1.133,21.599L7.2,21.599l-3.034,-6.066L1.133,21.599z" xmlns="http://www.w3.org/2000/svg"/>
<path d="M4.165,22.175c-0.124,0,-0.225,-0.102,-0.225,-0.225L3.94,14.75c0,-0.124,0.101,-0.225,0.225,-0.225S4.39,14.626,4.39,14.75l0,7.201C4.39,22.074,4.289,22.175,4.165,22.175z" xmlns="http://www.w3.org/2000/svg"/>
<path d="M8.783,16.414c-0.058,0,-0.115,-0.021,-0.159,-0.063c-0.088,-0.088,-0.088,-0.229,0,-0.317l2.339,-2.34c0.088,-0.088,0.23,-0.088,0.318,0c0.088,0.088,0.088,0.23,0,0.318L8.942,16.35C8.898,16.392,8.841,16.414,8.783,16.414z" xmlns="http://www.w3.org/2000/svg"/>
<path d="M8.422,13.176c-0.058,0,-0.115,-0.022,-0.159,-0.066c-0.087,-0.088,-0.087,-0.23,0,-0.318l2.341,-2.34c0.088,-0.088,0.23,-0.088,0.318,0s0.088,0.23,0,0.318l-2.341,2.34C8.537,13.154,8.48,13.176,8.422,13.176z" xmlns="http://www.w3.org/2000/svg"/>
<path d="M12.743,12.231l-1.08,2.52l-1.439,-1.439L12.743,12.231z" xmlns="http://www.w3.org/2000/svg"/>
<path d="M12.382,8.991l-1.08,2.52l-1.438,-1.438L12.382,8.991z" xmlns="http://www.w3.org/2000/svg"/>
<g xmlns="http://www.w3.org/2000/svg">
<path id="connector3pin" d="M32.964,29.5c-0.193,0,-0.35,-0.156,-0.35,-0.35l0,-7.199c0,-0.193,0.156,-0.352,0.35,-0.352c0.194,0,0.35,0.156,0.35,0.352l0,7.199C33.313,29.343,33.157,29.5,32.964,29.5z" fill="#787878" xmlns="http://www.w3.org/2000/svg"/>
<g id="connector3terminal" height="2.397" x="32.663" fill="none" xmlns="http://www.w3.org/2000/svg" y="27.167" width="0.75"/>
<path id="connector1pin" d="M18.567,7.9c-0.193,0,-0.35,-0.157,-0.35,-0.35l0,-7.2c0,-0.193,0.157,-0.35,0.35,-0.35s0.35,0.157,0.35,0.35l0,7.2C18.917,7.744,18.76,7.9,18.567,7.9z" fill="#787878" xmlns="http://www.w3.org/2000/svg"/>
<g id="connector1terminal" height="2.399" x="18.205" fill="none" xmlns="http://www.w3.org/2000/svg" width="0.75"/>
<path id="connector2pin" d="M18.566,29.5c-0.193,0,-0.35,-0.156,-0.35,-0.35l0,-7.199c0,-0.193,0.157,-0.352,0.35,-0.352s0.35,0.156,0.35,0.352l0,7.199C18.916,29.343,18.759,29.5,18.566,29.5z" fill="#787878" xmlns="http://www.w3.org/2000/svg"/>
<g id="connector2terminal" height="2.397" x="18.163" fill="none" xmlns="http://www.w3.org/2000/svg" y="27.167" width="0.75"/>
<path id="connector0pin" d="M4.165,29.5c-0.193,0,-0.35,-0.156,-0.35,-0.35l0,-7.199c0,-0.193,0.157,-0.352,0.35,-0.352s0.35,0.156,0.35,0.352l0,7.199C4.515,29.343,4.359,29.5,4.165,29.5z" fill="#787878" xmlns="http://www.w3.org/2000/svg"/>
<g id="connector0terminal" height="2.397" x="3.726" fill="none" xmlns="http://www.w3.org/2000/svg" y="27.167" width="0.75"/>
</g>
</g>
</g></g></g><g partID='854101540'><g transform='translate(232.056,96.1442)' ><g transform='matrix(-1,0,0,-1,0,0)'  ><g id="schematic" xmlns="http://www.w3.org/2000/svg">
<line stroke-width="0.432002" x2="8.63003" y2="0.216" stroke-linecap="round" x1="7.55002" stroke="#000000" xmlns="http://www.w3.org/2000/svg" y1="3.096" class="other"/>
<line stroke-width="0.432002" x2="10.43" y2="5.976" stroke-linecap="round" x1="8.63003" stroke="#000000" xmlns="http://www.w3.org/2000/svg" y1="0.216" class="other"/>
<line stroke-width="0.432002" x2="12.23" y2="0.216" stroke-linecap="round" x1="10.43" stroke="#000000" xmlns="http://www.w3.org/2000/svg" y1="5.976" class="other"/>
<line stroke-width="0.432002" x2="14.03" y2="5.976" stroke-linecap="round" x1="12.23" stroke="#000000" xmlns="http://www.w3.org/2000/svg" y1="0.216" class="other"/>
<line stroke-width="0.432002" x2="15.8301" y2="0.216" stroke-linecap="round" x1="14.03" stroke="#000000" xmlns="http://www.w3.org/2000/svg" y1="5.976" class="other"/>
<line stroke-width="0.432002" x2="17.6301" y2="5.976" stroke-linecap="round" x1="15.8301" stroke="#000000" xmlns="http://www.w3.org/2000/svg" y1="0.216" class="other"/>
<line stroke-width="0.432002" x2="19.4301" y2="0.216" stroke-linecap="round" x1="17.6301" stroke="#000000" xmlns="http://www.w3.org/2000/svg" y1="5.976" class="other"/>
<line stroke-width="0.432002" x2="21.2301" y2="5.976" stroke-linecap="round" x1="19.4301" stroke="#000000" xmlns="http://www.w3.org/2000/svg" y1="0.216" class="other"/>
<line stroke-width="0.432002" x2="21.9501" y2="3.096" stroke-linecap="round" x1="21.2301" stroke="#000000" xmlns="http://www.w3.org/2000/svg" y1="5.976" class="other"/>
<line stroke-width="0.700001" x2="21.9501" y2="3.096" id="connector1pin" stroke-linecap="round" x1="29.1502" stroke="#787878" xmlns="http://www.w3.org/2000/svg" connectorname="2" y1="3.096" class="pin"/>
<g stroke-width="0" id="connector1terminal" height="0.000283465" x="29.1502" stroke="none" fill="none" xmlns="http://www.w3.org/2000/svg" y="3.096" width="0.000283466" class="terminal"/>
<text stroke-width="0" text-anchor="middle" font-family="'Droid Sans'" x="25.5501" stroke="none" fill="#8c8c8c" xmlns="http://www.w3.org/2000/svg" y="2.046" class="text" font-size="2.50001">2</text>
<line stroke-width="0.700001" x2="7.55002" y2="3.096" id="connector0pin" stroke-linecap="round" x1="0.350001" stroke="#787878" xmlns="http://www.w3.org/2000/svg" connectorname="1" y1="3.096" class="pin"/>
<g stroke-width="0" id="connector0terminal" height="0.000283465" x="0.350001" stroke="none" fill="none" xmlns="http://www.w3.org/2000/svg" y="3.096" width="0.000283466" class="terminal"/>
<text stroke-width="0" text-anchor="middle" font-family="'Droid Sans'" x="3.95001" stroke="none" fill="#8c8c8c" xmlns="http://www.w3.org/2000/svg" y="2.046" class="text" font-size="2.50001">1</text>
</g>
</g></g></g><g partID='854101480'><g transform='translate(224.856,81.7442)' ><g transform='matrix(-1,0,0,-1,0,0)'  ><g id="schematic" xmlns="http://www.w3.org/2000/svg">
<line stroke-width="0.432002" x2="8.63003" y2="0.216" stroke-linecap="round" x1="7.55002" stroke="#000000" xmlns="http://www.w3.org/2000/svg" y1="3.096" class="other"/>
<line stroke-width="0.432002" x2="10.43" y2="5.976" stroke-linecap="round" x1="8.63003" stroke="#000000" xmlns="http://www.w3.org/2000/svg" y1="0.216" class="other"/>
<line stroke-width="0.432002" x2="12.23" y2="0.216" stroke-linecap="round" x1="10.43" stroke="#000000" xmlns="http://www.w3.org/2000/svg" y1="5.976" class="other"/>
<line stroke-width="0.432002" x2="14.03" y2="5.976" stroke-linecap="round" x1="12.23" stroke="#000000" xmlns="http://www.w3.org/2000/svg" y1="0.216" class="other"/>
<line stroke-width="0.432002" x2="15.8301" y2="0.216" stroke-linecap="round" x1="14.03" stroke="#000000" xmlns="http://www.w3.org/2000/svg" y1="5.976" class="other"/>
<line stroke-width="0.432002" x2="17.6301" y2="5.976" stroke-linecap="round" x1="15.8301" stroke="#000000" xmlns="http://www.w3.org/2000/svg" y1="0.216" class="other"/>
<line stroke-width="0.432002" x2="19.4301" y2="0.216" stroke-linecap="round" x1="17.6301" stroke="#000000" xmlns="http://www.w3.org/2000/svg" y1="5.976" class="other"/>
<line stroke-width="0.432002" x2="21.2301" y2="5.976" stroke-linecap="round" x1="19.4301" stroke="#000000" xmlns="http://www.w3.org/2000/svg" y1="0.216" class="other"/>
<line stroke-width="0.432002" x2="21.9501" y2="3.096" stroke-linecap="round" x1="21.2301" stroke="#000000" xmlns="http://www.w3.org/2000/svg" y1="5.976" class="other"/>
<line stroke-width="0.700001" x2="21.9501" y2="3.096" id="connector1pin" stroke-linecap="round" x1="29.1502" stroke="#787878" xmlns="http://www.w3.org/2000/svg" connectorname="2" y1="3.096" class="pin"/>
<g stroke-width="0" id="connector1terminal" height="0.000283465" x="29.1502" stroke="none" fill="none" xmlns="http://www.w3.org/2000/svg" y="3.096" width="0.000283466" class="terminal"/>
<text stroke-width="0" text-anchor="middle" font-family="'Droid Sans'" x="25.5501" stroke="none" fill="#8c8c8c" xmlns="http://www.w3.org/2000/svg" y="2.046" class="text" font-size="2.50001">2</text>
<line stroke-width="0.700001" x2="7.55002" y2="3.096" id="connector0pin" stroke-linecap="round" x1="0.350001" stroke="#787878" xmlns="http://www.w3.org/2000/svg" connectorname="1" y1="3.096" class="pin"/>
<g stroke-width="0" id="connector0terminal" height="0.000283465" x="0.350001" stroke="none" fill="none" xmlns="http://www.w3.org/2000/svg" y="3.096" width="0.000283466" class="terminal"/>
<text stroke-width="0" text-anchor="middle" font-family="'Droid Sans'" x="3.95001" stroke="none" fill="#8c8c8c" xmlns="http://www.w3.org/2000/svg" y="2.046" class="text" font-size="2.50001">1</text>
</g>
</g></g></g><g partID='854101260'><g transform='translate(217.656,74.5442)' ><g transform='matrix(-1,0,0,-1,0,0)'  ><g id="schematic" xmlns="http://www.w3.org/2000/svg">
<line stroke-width="0.432002" x2="8.63003" y2="0.216" stroke-linecap="round" x1="7.55002" stroke="#000000" xmlns="http://www.w3.org/2000/svg" y1="3.096" class="other"/>
<line stroke-width="0.432002" x2="10.43" y2="5.976" stroke-linecap="round" x1="8.63003" stroke="#000000" xmlns="http://www.w3.org/2000/svg" y1="0.216" class="other"/>
<line stroke-width="0.432002" x2="12.23" y2="0.216" stroke-linecap="round" x1="10.43" stroke="#000000" xmlns="http://www.w3.org/2000/svg" y1="5.976" class="other"/>
<line stroke-width="0.432002" x2="14.03" y2="5.976" stroke-linecap="round" x1="12.23" stroke="#000000" xmlns="http://www.w3.org/2000/svg" y1="0.216" class="other"/>
<line stroke-width="0.432002" x2="15.8301" y2="0.216" stroke-linecap="round" x1="14.03" stroke="#000000" xmlns="http://www.w3.org/2000/svg" y1="5.976" class="other"/>
<line stroke-width="0.432002" x2="17.6301" y2="5.976" stroke-linecap="round" x1="15.8301" stroke="#000000" xmlns="http://www.w3.org/2000/svg" y1="0.216" class="other"/>
<line stroke-width="0.432002" x2="19.4301" y2="0.216" stroke-linecap="round" x1="17.6301" stroke="#000000" xmlns="http://www.w3.org/2000/svg" y1="5.976" class="other"/>
<line stroke-width="0.432002" x2="21.2301" y2="5.976" stroke-linecap="round" x1="19.4301" stroke="#000000" xmlns="http://www.w3.org/2000/svg" y1="0.216" class="other"/>
<line stroke-width="0.432002" x2="21.9501" y2="3.096" stroke-linecap="round" x1="21.2301" stroke="#000000" xmlns="http://www.w3.org/2000/svg" y1="5.976" class="other"/>
<line stroke-width="0.700001" x2="21.9501" y2="3.096" id="connector1pin" stroke-linecap="round" x1="29.1502" stroke="#787878" xmlns="http://www.w3.org/2000/svg" connectorname="2" y1="3.096" class="pin"/>
<g stroke-width="0" id="connector1terminal" height="0.000283465" x="29.1502" stroke="none" fill="none" xmlns="http://www.w3.org/2000/svg" y="3.096" width="0.000283466" class="terminal"/>
<text stroke-width="0" text-anchor="middle" font-family="'Droid Sans'" x="25.5501" stroke="none" fill="#8c8c8c" xmlns="http://www.w3.org/2000/svg" y="2.046" class="text" font-size="2.50001">2</text>
<line stroke-width="0.700001" x2="7.55002" y2="3.096" id="connector0pin" stroke-linecap="round" x1="0.350001" stroke="#787878" xmlns="http://www.w3.org/2000/svg" connectorname="1" y1="3.096" class="pin"/>
<g stroke-width="0" id="connector0terminal" height="0.000283465" x="0.350001" stroke="none" fill="none" xmlns="http://www.w3.org/2000/svg" y="3.096" width="0.000283466" class="terminal"/>
<text stroke-width="0" text-anchor="middle" font-family="'Droid Sans'" x="3.95001" stroke="none" fill="#8c8c8c" xmlns="http://www.w3.org/2000/svg" y="2.046" class="text" font-size="2.50001">1</text>
</g>
</g></g></g><g partID='854192520'><line stroke-linecap='round' stroke='#cc1414' x1='51.7058' y1='93.0479' x2='30.1058' y2='93.0478' stroke-width='0.699998' /></g><circle  fill="black" cx="30.1058" cy="93.0478" r="1.44" stroke-width="0" stroke="none" /><g partID='854192840'><line stroke-linecap='round' stroke='#418dd9' x1='44.4137' y1='114.68' x2='116.505' y2='114.68' stroke-width='0.699998' /></g><circle  fill="black" cx="116.505" cy="114.68" r="1.44" stroke-width="0" stroke="none" /><g partID='854192990'><line stroke-linecap='round' stroke='#418dd9' x1='44.4137' y1='114.68' x2='44.4137' y2='114.68' stroke-width='0.699998' /></g><g partID='854192920'><line stroke-linecap='round' stroke='#418dd9' x1='44.4137' y1='121.904' x2='44.4137' y2='114.68' stroke-width='0.699998' /></g><g partID='854192850'><line stroke-linecap='round' stroke='#418dd9' x1='30.1058' y1='121.848' x2='44.4137' y2='121.904' stroke-width='0.699998' /></g><g partID='854194790'><line stroke-linecap='round' stroke='#cc1414' x1='8.36742' y1='93.0019' x2='30.1056' y2='93.0478' stroke-width='0.699998' /></g><circle  fill="black" cx="30.1056" cy="93.0478" r="1.44" stroke-width="0" stroke="none" /><g partID='854194800'><line stroke-linecap='round' stroke='#cc1414' x1='8.50582' y1='129.048' x2='8.3677' y2='93.0019' stroke-width='0.699998' /></g><g partID='854194890'><line stroke-linecap='round' stroke='#cc1414' x1='59.027' y1='150.806' x2='15.7058' y2='150.648' stroke-width='0.699998' /></g><g partID='854194950'><line stroke-linecap='round' stroke='#cc1414' x1='59.027' y1='121.904' x2='59.027' y2='150.805' stroke-width='0.699998' /></g><g partID='854194900'><line stroke-linecap='round' stroke='#cc1414' x1='116.505' y1='121.881' x2='59.027' y2='121.904' stroke-width='0.699998' /></g><circle  fill="black" cx="116.505" cy="121.881" r="1.44" stroke-width="0" stroke="none" /><g partID='854157720'><line stroke-linecap='round' stroke='#404040' x1='145.227' y1='165.013' x2='145.306' y2='157.848' stroke-width='0.699998' /></g><g partID='854157730'><line stroke-linecap='round' stroke='#404040' x1='174.106' y1='28.2632' x2='296.579' y2='28.1473' stroke-width='0.699998' /></g><g partID='854157870'><line stroke-linecap='round' stroke='#404040' x1='296.579' y1='28.1472' x2='296.579' y2='165.013' stroke-width='0.699998' /></g><g partID='854157820'><line stroke-linecap='round' stroke='#404040' x1='296.579' y1='165.013' x2='145.227' y2='165.013' stroke-width='0.699998' /></g><g partID='854157940'><line stroke-linecap='round' stroke='#404040' x1='137.985' y1='172.256' x2='138.106' y2='157.848' stroke-width='0.699998' /></g><g partID='854157950'><line stroke-linecap='round' stroke='#404040' x1='174.106' y1='35.4632' x2='303.822' y2='35.3905' stroke-width='0.699998' /></g><g partID='854158050'><line stroke-linecap='round' stroke='#404040' x1='303.822' y1='35.3904' x2='303.822' y2='172.256' stroke-width='0.699998' /></g><g partID='854158000'><line stroke-linecap='round' stroke='#404040' x1='303.822' y1='172.256' x2='137.985' y2='172.256' stroke-width='0.699998' /></g><g partID='854169970'><line stroke-linecap='round' stroke='#418dd9' x1='73.459' y1='21.1048' x2='51.7058' y2='21.048' stroke-width='0.699998' /></g><g partID='854169980'><line stroke-linecap='round' stroke='#418dd9' x1='116.505' y1='85.7797' x2='73.459' y2='86.0012' stroke-width='0.699998' /></g><g partID='854170030'><line stroke-linecap='round' stroke='#418dd9' x1='73.459' y1='86.0012' x2='73.459' y2='21.1048' stroke-width='0.699998' /></g><g partID='854195000'><line stroke-linecap='round' stroke='#418dd9' x1='289.267' y1='64.1002' x2='174.106' y2='64.2481' stroke-width='0.699998' /></g><circle  fill="black" cx="174.106" cy="64.2481" r="1.44" stroke-width="0" stroke="none" /><g partID='854139090'><line stroke-linecap='round' stroke='#418dd9' x1='289.451' y1='85.8118' x2='289.267' y2='64.1002' stroke-width='0.699998' /></g><g partID='854157390'><line stroke-linecap='round' stroke='#418dd9' x1='174.105' y1='64.2482' x2='174.105' y2='64.2482' stroke-width='0.699998' /></g><circle  fill="black" cx="174.105" cy="64.2482" r="1.44" stroke-width="0" stroke="none" /><g partID='854139130'><line stroke-linecap='round' stroke='#418dd9' x1='174.105' y1='64.2482' x2='174.105' y2='64.2482' stroke-width='0.699998' /></g><circle  fill="black" cx="174.105" cy="64.2482" r="1.44" stroke-width="0" stroke="none" /><g partID='854139100'><line stroke-linecap='round' stroke='#418dd9' x1='287.672' y1='85.927' x2='289.451' y2='85.8118' stroke-width='0.699998' /></g><g partID='854139300'><line stroke-linecap='round' stroke='#404040' x1='246.215' y1='78.7183' x2='260.506' y2='85.885' stroke-width='0.699998' /></g><g partID='854139310'><line stroke-linecap='round' stroke='#404040' x1='224.506' y1='78.648' x2='246.215' y2='78.7183' stroke-width='0.699998' /></g><g partID='854143020'><line stroke-linecap='round' stroke='#404040' x1='174.106' y1='78.6642' x2='195.706' y2='78.648' stroke-width='0.699998' /></g><g partID='854146070'><line stroke-linecap='round' stroke='#404040' x1='246.215' y1='92.9052' x2='231.706' y2='93.048' stroke-width='0.699998' /></g><g partID='854146080'><line stroke-linecap='round' stroke='#404040' x1='260.506' y1='100.385' x2='246.214' y2='92.9052' stroke-width='0.699998' /></g><g partID='854146130'><line stroke-linecap='round' stroke='#404040' x1='217.306' y1='71.448' x2='260.506' y2='71.4479' stroke-width='0.699998' /></g><g partID='854146170'><line stroke-linecap='round' stroke='#404040' x1='174.106' y1='71.4632' x2='188.506' y2='71.4481' stroke-width='0.699998' /></g><g partID='854146250'><line stroke-linecap='round' stroke='#404040' x1='202.906' y1='93.048' x2='202.906' y2='93.048' stroke-width='0.699998' /></g><circle  fill="black" cx="202.906" cy="93.048" r="1.44" stroke-width="0" stroke="none" /><g partID='854195070'><line stroke-linecap='round' stroke='#404040' x1='188.598' y1='85.8577' x2='202.906' y2='93.048' stroke-width='0.699998' /></g><circle  fill="black" cx="202.906" cy="93.048" r="1.44" stroke-width="0" stroke="none" /><g partID='854146210'><line stroke-linecap='round' stroke='#404040' x1='174.105' y1='85.8332' x2='188.598' y2='85.8577' stroke-width='0.699998' /></g><g partID='854168670'><line stroke-linecap='round' stroke='#404040' x1='202.906' y1='93.048' x2='202.906' y2='93.048' stroke-width='0.699998' /></g><circle  fill="black" cx="202.906" cy="93.048" r="1.44" stroke-width="0" stroke="none" /><g partID='854146440'><line stroke-linecap='round' stroke='#cc1414' x1='58.7449' y1='157.76' x2='123.706' y2='157.848' stroke-width='0.699998' /></g><g partID='854146480'><line stroke-linecap='round' stroke='#cc1414' x1='58.7449' y1='121.955' x2='58.7449' y2='157.76' stroke-width='0.699998' /></g><g partID='854146450'><line stroke-linecap='round' stroke='#cc1414' x1='116.505' y1='121.881' x2='58.745' y2='121.955' stroke-width='0.699998' /></g><circle  fill="black" cx="116.505" cy="121.881" r="1.44" stroke-width="0" stroke="none" /><g partID='854110080'><line stroke-linecap='round' stroke='#418dd9' x1='94.8891' y1='114.457' x2='116.505' y2='114.68' stroke-width='0.699998' /></g><circle  fill="black" cx="116.505" cy="114.68" r="1.44" stroke-width="0" stroke="none" /><g partID='854110270'><line stroke-linecap='round' stroke='#418dd9' x1='131.03' y1='172.284' x2='94.8877' y2='172.284' stroke-width='0.699998' /></g><g partID='854110180'><line stroke-linecap='round' stroke='#418dd9' x1='94.8877' y1='172.284' x2='94.8891' y2='114.457' stroke-width='0.699998' /></g><g partID='854110090'><line stroke-linecap='round' stroke='#418dd9' x1='130.906' y1='157.848' x2='131.03' y2='172.284' stroke-width='0.699998' /></g><g partID='58350' id='partLabel'><g transform='translate(114.498,143.469)' ><g transform='matrix(0,-1,1,0,0,0)'  ><g font-size='5' font-style='normal' font-weight='normal' fill='#000000' font-family="'DroidSans'" id='schematicLabel' fill-opacity='1' stroke='none' ><text x='0' y='3.75'>GY1</text></g></g></g></g><g partID='854101480' id='partLabel'><g transform='translate(218.238,80.3859)' ><g font-size='5' font-style='normal' font-weight='normal' fill='#000000' font-family="'DroidSans'" id='schematicLabel' fill-opacity='1' stroke='none' ><text x='0' y='3.75'>R4</text><text x='0' y='8.75'>1k&#x3a9;</text></g></g></g><g partID='854168730' id='partLabel'><g transform='translate(66.1058,15.448)' ><g font-size='5' font-style='normal' font-weight='normal' fill='#000000' font-family="'DroidSans'" id='schematicLabel' fill-opacity='1' stroke='none' ><text x='0' y='3.75'>Part1</text></g></g></g><g partID='854101230' id='partLabel'><g transform='translate(268.032,116.233)' ><g font-size='5' font-style='normal' font-weight='normal' fill='#000000' font-family="'DroidSans'" id='schematicLabel' fill-opacity='1' stroke='none' ><text x='0' y='3.75'>LED1</text></g></g></g><g partID='854189300' id='partLabel'><g transform='translate(19.6562,125.742)' ><g font-size='5' font-style='normal' font-weight='normal' fill='#000000' font-family="'DroidSans'" id='schematicLabel' fill-opacity='1' stroke='none' ><text x='0' y='3.75'>S1</text></g></g></g><g partID='854189610' id='partLabel'><g transform='translate(40.9914,125.445)' ><g transform='matrix(0,1,-1,0,0,0)'  ><g font-size='5' font-style='normal' font-weight='normal' fill='#000000' font-family="'DroidSans'" id='schematicLabel' fill-opacity='1' stroke='none' ><text x='0' y='3.75'>VCC1</text><text x='0' y='8.75'>3V</text></g></g></g></g><g partID='854101260' id='partLabel'><g transform='translate(217.656,57.1522)' ><g font-size='5' font-style='normal' font-weight='normal' fill='#000000' font-family="'DroidSans'" id='schematicLabel' fill-opacity='1' stroke='none' ><text x='0' y='3.75'>R3</text><text x='0' y='8.75'>1k&#x3a9;</text></g></g></g><g partID='854101540' id='partLabel'><g transform='translate(232.056,78.7522)' ><g font-size='5' font-style='normal' font-weight='normal' fill='#000000' font-family="'DroidSans'" id='schematicLabel' fill-opacity='1' stroke='none' ><text x='0' y='3.75'>R5</text><text x='0' y='8.75'>1k&#x3a9;</text></g></g></g><g partID='57800' id='partLabel'><g transform='translate(177.868,0)' ><g font-size='5' font-style='normal' font-weight='normal' fill='#000000' font-family="'DroidSans'" id='schematicLabel' fill-opacity='1' stroke='none' ><text x='0' y='3.75'>U1</text></g></g></g></svg>