<?xml version='1.0' encoding='UTF-8' standalone='no'?>
<!-- Created with Fritzing (http://www.fritzing.org/) -->
<svg xmlns="http://www.w3.org/2000/svg" version="1.2" height="2.22222in" x="0in" width="3.33333in" baseProfile="tiny" y="0in" xmlns:svg="http://www.w3.org/2000/svg" viewBox="0 0 240 160" >
 <g transform="matrix(-1, 0, 0, 1, 240, 0)">
  <g partID="57712">
   <g id="silkscreen">
    <rect fill="none" stroke-width="0.576" height="159.424" width="239.424" x="0.288" y="0.288" stroke="black"/>
   </g>
  </g>
  <g partID="57710">
   <g id="board">
    <rect fill="none" stroke-width="0.5" fill-opacity="0.5" height="159.424" width="239.424" x="0.288" y="0.288" stroke="black" id="boardoutline"/>
   </g>
  </g>
  <g partID="57712">
   <g id="silkscreen">
    <rect fill="none" stroke-width="0.576" height="159.424" width="239.424" x="0.288" y="0.288" stroke="black"/>
   </g>
  </g>
  <g partID="57801">
   <g transform="translate(47.0762,8.38792)">
    <g transform="matrix(1, 0, 0, 1, 53.104, 4.304)">
     <g id="silkscreen">
      <g transform="matrix(0.955169, 0, 0, 1.23954, -5.1507, -0.784008)">
       <g>
        <g gorn="0.1.0.0.0.0.2.0.0.0.0">
         <line fill="none" stroke-width="0.6" x2="-49.904" y1="-1.424" y2="106.63" x1="-49.904" stroke="black" id="line4" gorn="0.1.0.0.0.0.2.0.0.0.0.0"/>
         <line fill="none" stroke-width="0.6" x2="23.6168" y1="106.63" y2="-1.424" x1="23.6168" stroke="black" id="line6" gorn="0.1.0.0.0.0.2.0.0.0.0.1"/>
         <line fill="none" stroke-width="0.6" x2="23.2168" y1="106.63" y2="106.63" x1="-49.904" stroke="black" id="line8" gorn="0.1.0.0.0.0.2.0.0.0.0.2"/>
         <line fill="none" stroke-width="0.6" x2="23.376" y1="-2.624" y2="-2.624" x1="-49.904" stroke="black" id="line10" gorn="0.1.0.0.0.0.2.0.0.0.0.3"/>
        </g>
       </g>
      </g>
     </g>
    </g>
   </g>
  </g>
  <g partID="58351">
   <g transform="translate(128.444,140.906)">
    <g transform="matrix(0,-1,1,0,0,0)">
     <g transform="matrix(2.83346, 0, 0, 2.00731, -3.22122, -2.03179)">
      <g id="silkscreen">
       <g gorn="0.4.0.0">
        <line stroke-width="0.50848" style="stroke-miterlimit:4;stroke-dasharray:none" x2="1.35084" y1="1.31425" y2="30.3655" x1="1.35084" stroke="black" id="line7" gorn="0.4.0.0.0"/>
        <line stroke-width="0.50848" style="stroke-miterlimit:4;stroke-dasharray:none" x2="15.9292" y1="30.3655" y2="30.3655" x1="1.35084" stroke="black" id="line9" gorn="0.4.0.0.1"/>
        <line stroke-width="0.50848" style="stroke-miterlimit:4;stroke-dasharray:none" x2="15.9292" y1="30.3655" y2="1.31425" x1="15.9292" stroke="black" id="line11" gorn="0.4.0.0.2"/>
        <line stroke-width="0.50848" style="stroke-miterlimit:4;stroke-dasharray:none" x2="1.35084" y1="1.31425" y2="1.31425" x1="15.9292" stroke="black" id="line13" gorn="0.4.0.0.3"/>
        <line stroke-width="0.146567" x2="2.20599" y1="2.54869" y2="1.31321" x1="1.35401" stroke="black" id="line15" gorn="0.4.0.0.4"/>
        <!-- 120 -->
       </g>
      </g>
     </g>
    </g>
   </g>
  </g>
  <g partID="854100751">
   <g transform="translate(197.096,108.1)">
    <g transform="matrix(0,1,-1,0,0,0)">
     <g id="silkscreen">
      <line stroke-width="0.72" x2="10.584" y1="3.096" y2="3.096" x1="5.4" stroke="black"/>
      <line stroke-width="0.72" x2="28.8" y1="3.096" y2="3.096" x1="24.984" stroke="black"/>
      <line stroke-width="0.72" x2="24.984" y1="0.72" y2="0.72" x1="10.584" stroke="black"/>
      <line stroke-width="0.72" x2="24.984" y1="0.72" y2="5.472" x1="24.984" stroke="black"/>
      <line stroke-width="0.72" x2="10.584" y1="5.472" y2="5.472" x1="24.984" stroke="black"/>
      <line stroke-width="0.72" x2="10.584" y1="5.472" y2="0.72" x1="10.584" stroke="black"/>
     </g>
    </g>
   </g>
  </g>
  <g partID="854100821">
   <g transform="translate(143.096,61.3)">
    <g transform="matrix(0,1,-1,0,0,0)">
     <g id="silkscreen">
      <line stroke-width="0.72" x2="10.584" y1="3.096" y2="3.096" x1="5.4" stroke="black"/>
      <line stroke-width="0.72" x2="28.8" y1="3.096" y2="3.096" x1="24.984" stroke="black"/>
      <line stroke-width="0.72" x2="24.984" y1="0.72" y2="0.72" x1="10.584" stroke="black"/>
      <line stroke-width="0.72" x2="24.984" y1="0.72" y2="5.472" x1="24.984" stroke="black"/>
      <line stroke-width="0.72" x2="10.584" y1="5.472" y2="5.472" x1="24.984" stroke="black"/>
      <line stroke-width="0.72" x2="10.584" y1="5.472" y2="0.72" x1="10.584" stroke="black"/>
     </g>
    </g>
   </g>
  </g>
  <g partID="854101231">
   <g transform="translate(165.782,50.6382)">
    <g transform="matrix(0,-1,1,0,0,0)">
     <g id="silkscreen">
      <g transform="scale(111.11111,111.11111)">
       <path d="M0.17865,0.063225C0.166575,0.0264816,0.131896,0,0.091125,0,0.0591927,0,0.031119,0.0162472,0.014625,0.04095l0,0.022275m0,0.0576,0,0.02205c0.0164932,0.0247078,0.0445639,0.041175,0.0765,0.041175,0.0407713,0,0.0754496,-0.0264816,0.087525,-0.063225" fill="none" stroke-width="0.0072" style="stroke-miterlimit:4;stroke-dasharray:none" stroke="black" id="path3607" stroke-opacity="1"/>
      </g>
     </g>
    </g>
   </g>
  </g>
  <g partID="854101261">
   <g transform="translate(157.1,49.096)">
    <g transform="matrix(-1,0,0,-1,0,0)">
     <g id="silkscreen">
      <line stroke-width="0.72" x2="10.584" y1="3.096" y2="3.096" x1="5.4" stroke="black"/>
      <line stroke-width="0.72" x2="28.8" y1="3.096" y2="3.096" x1="24.984" stroke="black"/>
      <line stroke-width="0.72" x2="24.984" y1="0.72" y2="0.72" x1="10.584" stroke="black"/>
      <line stroke-width="0.72" x2="24.984" y1="0.72" y2="5.472" x1="24.984" stroke="black"/>
      <line stroke-width="0.72" x2="10.584" y1="5.472" y2="5.472" x1="24.984" stroke="black"/>
      <line stroke-width="0.72" x2="10.584" y1="5.472" y2="0.72" x1="10.584" stroke="black"/>
     </g>
    </g>
   </g>
  </g>
  <g partID="854101481">
   <g transform="translate(157.1,41.896)">
    <g transform="matrix(-1,0,0,-1,0,0)">
     <g id="silkscreen">
      <line stroke-width="0.72" x2="10.584" y1="3.096" y2="3.096" x1="5.4" stroke="black"/>
      <line stroke-width="0.72" x2="28.8" y1="3.096" y2="3.096" x1="24.984" stroke="black"/>
      <line stroke-width="0.72" x2="24.984" y1="0.72" y2="0.72" x1="10.584" stroke="black"/>
      <line stroke-width="0.72" x2="24.984" y1="0.72" y2="5.472" x1="24.984" stroke="black"/>
      <line stroke-width="0.72" x2="10.584" y1="5.472" y2="5.472" x1="24.984" stroke="black"/>
      <line stroke-width="0.72" x2="10.584" y1="5.472" y2="0.72" x1="10.584" stroke="black"/>
     </g>
    </g>
   </g>
  </g>
  <g partID="854101541">
   <g transform="translate(157.1,34.696)">
    <g transform="matrix(-1,0,0,-1,0,0)">
     <g id="silkscreen">
      <line stroke-width="0.72" x2="10.584" y1="3.096" y2="3.096" x1="5.4" stroke="black"/>
      <line stroke-width="0.72" x2="28.8" y1="3.096" y2="3.096" x1="24.984" stroke="black"/>
      <line stroke-width="0.72" x2="24.984" y1="0.72" y2="0.72" x1="10.584" stroke="black"/>
      <line stroke-width="0.72" x2="24.984" y1="0.72" y2="5.472" x1="24.984" stroke="black"/>
      <line stroke-width="0.72" x2="10.584" y1="5.472" y2="5.472" x1="24.984" stroke="black"/>
      <line stroke-width="0.72" x2="10.584" y1="5.472" y2="0.72" x1="10.584" stroke="black"/>
     </g>
    </g>
   </g>
  </g>
  <g partID="57800" id="partLabel">
   <g transform="translate(80.9908,11.4635)">
    <g font-style="normal" fill="#000000" fill-opacity="1" font-family="'OCRA'" font-size="5" font-weight="normal" stroke="none" id="silkscreenLabel">
     <text x="0" y="3.75">U1</text>
    </g>
   </g>
  </g>
  <g partID="58350" id="partLabel">
   <g transform="translate(183.389,103.252)">
    <g transform="matrix(0,1,-1,0,0,0)">
     <g font-style="normal" fill="#000000" fill-opacity="1" font-family="'OCRA'" font-size="5" font-weight="normal" stroke="none" id="silkscreenLabel">
      <text x="0" y="3.75">GY1</text>
     </g>
    </g>
   </g>
  </g>
  <g partID="854100750" id="partLabel">
   <g transform="translate(198.524,121.053)">
    <g font-style="normal" fill="#000000" fill-opacity="1" font-family="'OCRA'" font-size="5" font-weight="normal" stroke="none" id="silkscreenLabel">
     <text x="0" y="3.75">R1</text>
    </g>
   </g>
  </g>
  <g partID="854100820" id="partLabel">
   <g transform="translate(144.252,72.624)">
    <g font-style="normal" fill="#000000" fill-opacity="1" font-family="'OCRA'" font-size="5" font-weight="normal" stroke="none" id="silkscreenLabel">
     <text x="0" y="3.75">R2</text>
    </g>
   </g>
  </g>
  <g partID="854101230" id="partLabel">
   <g transform="translate(170.398,22.898)">
    <g font-style="normal" fill="#000000" fill-opacity="1" font-family="'OCRA'" font-size="5" font-weight="normal" stroke="none" id="silkscreenLabel">
     <text x="0" y="3.75">LED1</text>
    </g>
   </g>
  </g>
  <g partID="854101260" id="partLabel">
   <g transform="translate(142.524,49.8649)">
    <g transform="matrix(0,1,-1,0,0,0)">
     <g font-style="normal" fill="#000000" fill-opacity="1" font-family="'OCRA'" font-size="5" font-weight="normal" stroke="none" id="silkscreenLabel">
      <text x="0" y="3.75">R3</text>
     </g>
    </g>
   </g>
  </g>
  <g partID="854101480" id="partLabel">
   <g transform="translate(163.548,38.0516)">
    <g transform="matrix(0,1,-1,0,0,0)">
     <g font-style="normal" fill="#000000" fill-opacity="1" font-family="'OCRA'" font-size="5" font-weight="normal" stroke="none" id="silkscreenLabel">
      <text x="0" y="3.75">R4</text>
     </g>
    </g>
   </g>
  </g>
  <g partID="854101540" id="partLabel">
   <g transform="translate(142.757,20.865)">
    <g transform="matrix(0,1,-1,0,0,0)">
     <g font-style="normal" fill="#000000" fill-opacity="1" font-family="'OCRA'" font-size="5" font-weight="normal" stroke="none" id="silkscreenLabel">
      <text x="0" y="3.75">R5</text>
     </g>
    </g>
   </g>
  </g>
  <g partID="57802">
   <g transform="translate(47.0762,8.38792)">
    <g transform="matrix(1, 0, 0, 1, 53.104, 4.304)">
     <g id="copper1">
      <g transform="matrix(0.997054, 0, 0, 0.998472, -5.48398, 10.1258)">
       <g>
        <g gorn="0.1.0.0.0.0.3.0.0.0.0.0">
         <circle cx="20.1632" fill="white" stroke-width="1.6416" stroke="white" r="1.2672" id="connector2pad" cy="16.0288" gorn="0.1.0.0.0.0.3.0.0.0.0.0.0"/>
         <circle cx="-44.6368" fill="white" stroke-width="1.6416" stroke="white" r="1.2672" id="connector42pin" cy="1.6288" gorn="0.1.0.0.0.0.3.0.0.0.0.0.1"/>
         <circle cx="-44.6368" fill="white" stroke-width="1.6416" stroke="white" r="1.2672" id="connector41pin" cy="8.8288" gorn="0.1.0.0.0.0.3.0.0.0.0.0.2"/>
         <circle cx="-44.6368" fill="white" stroke-width="1.6416" stroke="white" r="1.2672" id="connector40pin" cy="16.0288" gorn="0.1.0.0.0.0.3.0.0.0.0.0.3"/>
         <circle cx="-44.6368" fill="white" stroke-width="1.6416" stroke="white" r="1.2672" id="connector39pin" cy="23.2288" gorn="0.1.0.0.0.0.3.0.0.0.0.0.4"/>
         <circle cx="-44.6368" fill="white" stroke-width="1.6416" stroke="white" r="1.2672" id="connector38pin" cy="30.4288" gorn="0.1.0.0.0.0.3.0.0.0.0.0.5"/>
         <circle cx="20.1632" fill="white" stroke-width="1.6416" stroke="white" r="1.2672" id="connector1pad" cy="8.8288" gorn="0.1.0.0.0.0.3.0.0.0.0.0.6"/>
         <circle cx="20.1632" fill="white" stroke-width="1.6416" stroke="white" r="1.2672" id="connector0pad" cy="1.6288" gorn="0.1.0.0.0.0.3.0.0.0.0.0.7"/>
         <circle cx="20.1632" fill="white" stroke-width="1.6416" stroke="white" r="1.2672" id="connector3pad" cy="23.2288" gorn="0.1.0.0.0.0.3.0.0.0.0.0.8"/>
         <circle cx="-44.6368" fill="white" stroke-width="1.6416" stroke="white" r="1.2672" id="connector37pin" cy="37.6288" gorn="0.1.0.0.0.0.3.0.0.0.0.0.9"/>
         <circle cx="-44.6368" fill="white" stroke-width="1.6416" stroke="white" r="1.2672" id="connector36pin" cy="44.8288" gorn="0.1.0.0.0.0.3.0.0.0.0.0.10"/>
         <circle cx="-44.6368" fill="white" stroke-width="1.6416" stroke="white" r="1.2672" id="connector35pin" cy="52.0288" gorn="0.1.0.0.0.0.3.0.0.0.0.0.11"/>
         <circle cx="-44.6368" fill="white" stroke-width="1.6416" stroke="white" r="1.2672" id="connector34pin" cy="59.2288" gorn="0.1.0.0.0.0.3.0.0.0.0.0.12"/>
         <circle cx="-44.6368" fill="white" stroke-width="1.6416" stroke="white" r="1.2672" id="connector33pin" cy="66.4288" gorn="0.1.0.0.0.0.3.0.0.0.0.0.13"/>
         <circle cx="-44.6368" fill="white" stroke-width="1.6416" stroke="white" r="1.2672" id="connector19pad" cy="73.6288" gorn="0.1.0.0.0.0.3.0.0.0.0.0.14"/>
         <circle cx="-44.6368" fill="white" stroke-width="1.6416" stroke="white" r="1.2672" id="connector18pad" cy="80.8288" gorn="0.1.0.0.0.0.3.0.0.0.0.0.15"/>
         <circle cx="-44.6368" fill="white" stroke-width="1.6416" stroke="white" r="1.2672" id="connector17pad" cy="88.0288" gorn="0.1.0.0.0.0.3.0.0.0.0.0.16"/>
         <circle cx="-44.6368" fill="white" stroke-width="1.6416" stroke="white" r="1.2672" id="connector16pad" cy="95.2288" gorn="0.1.0.0.0.0.3.0.0.0.0.0.17"/>
         <circle cx="-44.6368" fill="white" stroke-width="1.6416" stroke="white" r="1.2672" id="connector15pad" cy="102.429" gorn="0.1.0.0.0.0.3.0.0.0.0.0.18"/>
         <circle cx="20.1632" fill="white" stroke-width="1.6416" stroke="white" r="1.2672" id="connector7pad" cy="52.0288" gorn="0.1.0.0.0.0.3.0.0.0.0.0.19"/>
         <circle cx="20.1632" fill="white" stroke-width="1.6416" stroke="white" r="1.2672" id="connector8pad" cy="59.2288" gorn="0.1.0.0.0.0.3.0.0.0.0.0.20"/>
         <circle cx="20.1632" fill="white" stroke-width="1.6416" stroke="white" r="1.2672" id="connector9pad" cy="66.4288" gorn="0.1.0.0.0.0.3.0.0.0.0.0.21"/>
         <circle cx="20.1632" fill="white" stroke-width="1.6416" stroke="white" r="1.2672" id="connector10pad" cy="73.6288" gorn="0.1.0.0.0.0.3.0.0.0.0.0.22"/>
         <circle cx="20.1632" fill="white" stroke-width="1.6416" stroke="white" r="1.2672" id="connector11pad" cy="80.8288" gorn="0.1.0.0.0.0.3.0.0.0.0.0.23"/>
         <circle cx="20.1632" fill="white" stroke-width="1.6416" stroke="white" r="1.2672" id="connector12pad" cy="88.0288" gorn="0.1.0.0.0.0.3.0.0.0.0.0.24"/>
         <circle cx="20.1632" fill="white" stroke-width="1.6416" stroke="white" r="1.2672" id="connector13pad" cy="95.2288" gorn="0.1.0.0.0.0.3.0.0.0.0.0.25"/>
         <circle cx="20.1632" fill="white" stroke-width="1.6416" stroke="white" r="1.2672" id="connector14pad" cy="102.429" gorn="0.1.0.0.0.0.3.0.0.0.0.0.26"/>
         <circle cx="20.1632" fill="white" stroke-width="1.6416" stroke="white" r="1.2672" id="connector4pad" cy="30.4288" gorn="0.1.0.0.0.0.3.0.0.0.0.0.27"/>
         <circle cx="20.1632" fill="white" stroke-width="1.6416" stroke="white" r="1.2672" id="connector5pad" cy="37.6288" gorn="0.1.0.0.0.0.3.0.0.0.0.0.28"/>
         <circle cx="20.1632" fill="white" stroke-width="1.6416" stroke="white" r="1.2672" id="connector6pad" cy="44.8288" gorn="0.1.0.0.0.0.3.0.0.0.0.0.29"/>
        </g>
       </g>
      </g>
     </g>
    </g>
   </g>
  </g>
  <g partID="58352">
   <g transform="translate(128.444,140.906)">
    <g transform="matrix(0,-1,1,0,0,0)">
     <g transform="matrix(1, 0, 0, 1, 1.46576, 28.116)">
      <g id="copper1">
       <g gorn="0.5.0.0">
        <g id="copper0" gorn="0.5.0.0.0">
         <g transform="matrix(1, 0, 0, 1, -1.6, -28.8)">
          <g>
           <g>
            <circle cx="5.04" d="M 99,70 C 99,86.016258 86.016258,99 70,99 53.983742,99 41,86.016258 41,70 41,53.983742 53.983742,41 70,41 86.016258,41 99,53.983742 99,70 z" fill="white" stroke-width="2.16" stroke="white" r="2.088" id="connector0pin" gorn="0.5.0.0.0.0.0.0" cy="5.04"/>
           </g>
          </g>
         </g>
         <g transform="matrix(1, 0, 0, 1, -1.6, -28.8)">
          <g>
           <g>
            <circle cx="5.04" d="m 99,170 c 0,16.01626 -12.983742,29 -29,29 -16.016258,0 -29,-12.98374 -29,-29 0,-16.01626 12.983742,-29 29,-29 16.016258,0 29,12.98374 29,29 z" fill="white" stroke-width="2.16" stroke="white" r="2.088" id="connector1pin" gorn="0.5.0.0.0.1.0.0" cy="12.24"/>
           </g>
          </g>
         </g>
         <g transform="matrix(1, 0, 0, 1, -1.6, -28.8)">
          <g>
           <g>
            <circle cx="5.04" d="m 99,270 c 0,16.01626 -12.983742,29 -29,29 -16.016258,0 -29,-12.98374 -29,-29 0,-16.01626 12.983742,-29 29,-29 16.016258,0 29,12.98374 29,29 z" fill="white" stroke-width="2.16" stroke="white" r="2.088" id="connector2pin" gorn="0.5.0.0.0.2.0.0" cy="19.44"/>
           </g>
          </g>
         </g>
         <g transform="matrix(1, 0, 0, 1, -1.6, -28.8)">
          <g>
           <g>
            <circle cx="5.04" d="m 99,370 c 0,16.01626 -12.983742,29 -29,29 -16.016258,0 -29,-12.98374 -29,-29 0,-16.01626 12.983742,-29 29,-29 16.016258,0 29,12.98374 29,29 z" fill="white" stroke-width="2.16" stroke="white" r="2.088" id="connector3pin" gorn="0.5.0.0.0.3.0.0" cy="26.64"/>
           </g>
          </g>
         </g>
         <g transform="matrix(1, 0, 0, 1, -1.6, -28.8)">
          <g>
           <g>
            <circle cx="5.04" d="M 99,70 C 99,86.016258 86.016258,99 70,99 53.983742,99 41,86.016258 41,70 41,53.983742 53.983742,41 70,41 86.016258,41 99,53.983742 99,70 z" fill="white" stroke-width="2.16" stroke="white" r="2.088" id="circle23" gorn="0.5.0.0.0.4.0.0" cy="5.04"/>
           </g>
          </g>
         </g>
         <g transform="matrix(1, 0, 0, 1, -1.6, -28.8)">
          <g>
           <g>
            <circle cx="5.04" d="m 99,170 c 0,16.01626 -12.983742,29 -29,29 -16.016258,0 -29,-12.98374 -29,-29 0,-16.01626 12.983742,-29 29,-29 16.016258,0 29,12.98374 29,29 z" fill="white" stroke-width="2.16" stroke="white" r="2.088" id="circle25" gorn="0.5.0.0.0.5.0.0" cy="12.24"/>
           </g>
          </g>
         </g>
         <g transform="matrix(1, 0, 0, 1, -1.6, -28.8)">
          <g>
           <g>
            <circle cx="5.04" d="m 99,270 c 0,16.01626 -12.983742,29 -29,29 -16.016258,0 -29,-12.98374 -29,-29 0,-16.01626 12.983742,-29 29,-29 16.016258,0 29,12.98374 29,29 z" fill="white" stroke-width="2.16" stroke="white" r="2.088" id="circle27" gorn="0.5.0.0.0.6.0.0" cy="19.44"/>
           </g>
          </g>
         </g>
         <g transform="matrix(1, 0, 0, 1, -1.6, -28.8)">
          <g>
           <g>
            <circle cx="5.04" d="m 99,370 c 0,16.01626 -12.983742,29 -29,29 -16.016258,0 -29,-12.98374 -29,-29 0,-16.01626 12.983742,-29 29,-29 16.016258,0 29,12.98374 29,29 z" fill="white" stroke-width="2.16" stroke="white" r="2.088" id="circle29" gorn="0.5.0.0.0.7.0.0" cy="26.64"/>
           </g>
          </g>
         </g>
         <g transform="matrix(1, 0, 0, 1, -8.80542, 0.671186)">
          <g>
           <g>
            <circle cx="12.24" d="m 199,370 c 0,16.01626 -12.98374,29 -29,29 -16.01626,0 -29,-12.98374 -29,-29 0,-16.01626 12.98374,-29 29,-29 16.01626,0 29,12.98374 29,29 z" fill="white" stroke-width="2.16" stroke="white" r="2.088" id="connector4pin" gorn="0.5.0.0.0.8.0.0" cy="26.64"/>
           </g>
          </g>
         </g>
         <g transform="matrix(1, 0, 0, 1, -8.80542, 0.671186)">
          <g>
           <g>
            <circle cx="12.24" d="m 199,270 c 0,16.01626 -12.98374,29 -29,29 -16.01626,0 -29,-12.98374 -29,-29 0,-16.01626 12.98374,-29 29,-29 16.01626,0 29,12.98374 29,29 z" fill="white" stroke-width="2.16" stroke="white" r="2.088" id="connector5pin" gorn="0.5.0.0.0.9.0.0" cy="19.44"/>
           </g>
          </g>
         </g>
         <g transform="matrix(1, 0, 0, 1, -8.80542, 0.671186)">
          <g>
           <g>
            <circle cx="12.24" d="m 199,170 c 0,16.01626 -12.98374,29 -29,29 -16.01626,0 -29,-12.98374 -29,-29 0,-16.01626 12.98374,-29 29,-29 16.01626,0 29,12.98374 29,29 z" fill="white" stroke-width="2.16" stroke="white" r="2.088" id="connector6pin" gorn="0.5.0.0.0.10.0.0" cy="12.24"/>
           </g>
          </g>
         </g>
         <g transform="matrix(1, 0, 0, 1, -8.80542, 0.671186)">
          <g>
           <g>
            <circle cx="12.24" d="m 199,70 c 0,16.016258 -12.98374,29 -29,29 -16.01626,0 -29,-12.983742 -29,-29 0,-16.016258 12.98374,-29 29,-29 16.01626,0 29,12.983742 29,29 z" fill="white" stroke-width="2.16" stroke="white" r="2.088" id="connector7pin" gorn="0.5.0.0.0.11.0.0" cy="5.04"/>
           </g>
          </g>
         </g>
        </g>
       </g>
      </g>
     </g>
    </g>
   </g>
  </g>
  <g partID="854100752">
   <g transform="translate(197.096,108.1)">
    <g transform="matrix(0,1,-1,0,0,0)">
     <g id="copper1">
      <!-- <rect width="55" x="10" y="15.5" fill="none" height="55" stroke="rgb(255, 191, 0)" stroke-width="20" />  -->
      <circle cx="2.7" fill="white" stroke-width="2.16" stroke="white" r="1.98" id="connector0pin" cy="3.096"/>
      <circle cx="31.5" fill="white" stroke-width="2.16" stroke="white" r="1.98" id="connector1pin" cy="3.096"/>
     </g>
    </g>
   </g>
  </g>
  <g partID="854100822">
   <g transform="translate(143.096,61.3)">
    <g transform="matrix(0,1,-1,0,0,0)">
     <g id="copper1">
      <!-- <rect width="55" x="10" y="15.5" fill="none" height="55" stroke="rgb(255, 191, 0)" stroke-width="20" />  -->
      <circle cx="2.7" fill="white" stroke-width="2.16" stroke="white" r="1.98" id="connector0pin" cy="3.096"/>
      <circle cx="31.5" fill="white" stroke-width="2.16" stroke="white" r="1.98" id="connector1pin" cy="3.096"/>
     </g>
    </g>
   </g>
  </g>
  <g partID="854101232">
   <g transform="translate(165.782,50.6382)">
    <g transform="matrix(0,-1,1,0,0,0)">
     <g id="copper1">
      <g id="copper0">
       <circle cx="2.56464" fill="white" stroke-width="2.16" r="1.62" stroke="white" id="connector0pad" cy="10.2182"/>
       <circle cx="8.23824" fill="white" stroke-width="2.16" r="1.62" stroke="white" id="connector1pad" cy="10.2182"/>
       <circle cx="13.8974" fill="white" stroke-width="2.16" r="1.62" stroke="white" id="connector2pad" cy="10.2182"/>
       <circle cx="19.571" fill="white" stroke-width="2.16" r="1.62" stroke="white" id="connector3pad" cy="10.2182"/>
      </g>
     </g>
    </g>
   </g>
  </g>
  <g partID="854101262">
   <g transform="translate(157.1,49.096)">
    <g transform="matrix(-1,0,0,-1,0,0)">
     <g id="copper1">
      <!-- <rect width="55" x="10" y="15.5" fill="none" height="55" stroke="rgb(255, 191, 0)" stroke-width="20" />  -->
      <circle cx="2.7" fill="white" stroke-width="2.16" stroke="white" r="1.98" id="connector0pin" cy="3.096"/>
      <circle cx="31.5" fill="white" stroke-width="2.16" stroke="white" r="1.98" id="connector1pin" cy="3.096"/>
     </g>
    </g>
   </g>
  </g>
  <g partID="854101482">
   <g transform="translate(157.1,41.896)">
    <g transform="matrix(-1,0,0,-1,0,0)">
     <g id="copper1">
      <!-- <rect width="55" x="10" y="15.5" fill="none" height="55" stroke="rgb(255, 191, 0)" stroke-width="20" />  -->
      <circle cx="2.7" fill="white" stroke-width="2.16" stroke="white" r="1.98" id="connector0pin" cy="3.096"/>
      <circle cx="31.5" fill="white" stroke-width="2.16" stroke="white" r="1.98" id="connector1pin" cy="3.096"/>
     </g>
    </g>
   </g>
  </g>
  <g partID="854101542">
   <g transform="translate(157.1,34.696)">
    <g transform="matrix(-1,0,0,-1,0,0)">
     <g id="copper1">
      <!-- <rect width="55" x="10" y="15.5" fill="none" height="55" stroke="rgb(255, 191, 0)" stroke-width="20" />  -->
      <circle cx="2.7" fill="white" stroke-width="2.16" stroke="white" r="1.98" id="connector0pin" cy="3.096"/>
      <circle cx="31.5" fill="white" stroke-width="2.16" stroke="white" r="1.98" id="connector1pin" cy="3.096"/>
     </g>
    </g>
   </g>
  </g>
 </g>
</svg>
