<?xml version='1.0' encoding='UTF-8' standalone='no'?>
<!-- Created with Fritzing (http://www.fritzing.org/) -->
<svg xmlns="http://www.w3.org/2000/svg" version="1.2" height="2.22222in" x="0in" width="3.33333in" baseProfile="tiny" y="0in" xmlns:svg="http://www.w3.org/2000/svg" viewBox="0 0 240 160" >
 <g partID="57710">
  <g id="board" >
   <rect fill="none" stroke-width="0.5" fill-opacity="0.5" height="159.424" width="239.424" x="0.288" y="0.288" stroke="black" id="boardoutline" />
  </g>
 </g>
 <g partID="57802">
  <g transform="translate(47.0762,8.38792)">
   <g transform="matrix(1, 0, 0, 1, 53.104, 4.304)">
    <g id="copper1">
     <g transform="matrix(0.997054, 0, 0, 0.998472, -5.48398, 10.1258)">
      <g>
       <g gorn="0.1.0.0.0.0.3.0.0.0.0.0">
        <circle cx="20.1632" fill="none" stroke-width="0.9216" stroke="black" r="1.2672" id="connector2pad" cy="16.0288" gorn="0.1.0.0.0.0.3.0.0.0.0.0.0"/>
        <circle cx="-44.6368" fill="none" stroke-width="0.9216" stroke="black" r="1.2672" id="connector42pin" cy="1.6288" gorn="0.1.0.0.0.0.3.0.0.0.0.0.1"/>
        <circle cx="-44.6368" fill="none" stroke-width="0.9216" stroke="black" r="1.2672" id="connector41pin" cy="8.8288" gorn="0.1.0.0.0.0.3.0.0.0.0.0.2"/>
        <circle cx="-44.6368" fill="none" stroke-width="0.9216" stroke="black" r="1.2672" id="connector40pin" cy="16.0288" gorn="0.1.0.0.0.0.3.0.0.0.0.0.3"/>
        <circle cx="-44.6368" fill="none" stroke-width="0.9216" stroke="black" r="1.2672" id="connector39pin" cy="23.2288" gorn="0.1.0.0.0.0.3.0.0.0.0.0.4"/>
        <circle cx="-44.6368" fill="none" stroke-width="0.9216" stroke="black" r="1.2672" id="connector38pin" cy="30.4288" gorn="0.1.0.0.0.0.3.0.0.0.0.0.5"/>
        <circle cx="20.1632" fill="none" stroke-width="0.9216" stroke="black" r="1.2672" id="connector1pad" cy="8.8288" gorn="0.1.0.0.0.0.3.0.0.0.0.0.6"/>
        <circle cx="20.1632" fill="none" stroke-width="0.9216" stroke="black" r="1.2672" id="connector0pad" cy="1.6288" gorn="0.1.0.0.0.0.3.0.0.0.0.0.7"/>
        <circle cx="20.1632" fill="none" stroke-width="0.9216" stroke="black" r="1.2672" id="connector3pad" cy="23.2288" gorn="0.1.0.0.0.0.3.0.0.0.0.0.8"/>
        <circle cx="-44.6368" fill="none" stroke-width="0.9216" stroke="black" r="1.2672" id="connector37pin" cy="37.6288" gorn="0.1.0.0.0.0.3.0.0.0.0.0.9"/>
        <circle cx="-44.6368" fill="none" stroke-width="0.9216" stroke="black" r="1.2672" id="connector36pin" cy="44.8288" gorn="0.1.0.0.0.0.3.0.0.0.0.0.10"/>
        <circle cx="-44.6368" fill="none" stroke-width="0.9216" stroke="black" r="1.2672" id="connector35pin" cy="52.0288" gorn="0.1.0.0.0.0.3.0.0.0.0.0.11"/>
        <circle cx="-44.6368" fill="none" stroke-width="0.9216" stroke="black" r="1.2672" id="connector34pin" cy="59.2288" gorn="0.1.0.0.0.0.3.0.0.0.0.0.12"/>
        <circle cx="-44.6368" fill="none" stroke-width="0.9216" stroke="black" r="1.2672" id="connector33pin" cy="66.4288" gorn="0.1.0.0.0.0.3.0.0.0.0.0.13"/>
        <circle cx="-44.6368" fill="none" stroke-width="0.9216" stroke="black" r="1.2672" id="connector19pad" cy="73.6288" gorn="0.1.0.0.0.0.3.0.0.0.0.0.14"/>
        <circle cx="-44.6368" fill="none" stroke-width="0.9216" stroke="black" r="1.2672" id="connector18pad" cy="80.8288" gorn="0.1.0.0.0.0.3.0.0.0.0.0.15"/>
        <circle cx="-44.6368" fill="none" stroke-width="0.9216" stroke="black" r="1.2672" id="connector17pad" cy="88.0288" gorn="0.1.0.0.0.0.3.0.0.0.0.0.16"/>
        <circle cx="-44.6368" fill="none" stroke-width="0.9216" stroke="black" r="1.2672" id="connector16pad" cy="95.2288" gorn="0.1.0.0.0.0.3.0.0.0.0.0.17"/>
        <circle cx="-44.6368" fill="none" stroke-width="0.9216" stroke="black" r="1.2672" id="connector15pad" cy="102.429" gorn="0.1.0.0.0.0.3.0.0.0.0.0.18"/>
        <circle cx="20.1632" fill="none" stroke-width="0.9216" stroke="black" r="1.2672" id="connector7pad" cy="52.0288" gorn="0.1.0.0.0.0.3.0.0.0.0.0.19"/>
        <circle cx="20.1632" fill="none" stroke-width="0.9216" stroke="black" r="1.2672" id="connector8pad" cy="59.2288" gorn="0.1.0.0.0.0.3.0.0.0.0.0.20"/>
        <circle cx="20.1632" fill="none" stroke-width="0.9216" stroke="black" r="1.2672" id="connector9pad" cy="66.4288" gorn="0.1.0.0.0.0.3.0.0.0.0.0.21"/>
        <circle cx="20.1632" fill="none" stroke-width="0.9216" stroke="black" r="1.2672" id="connector10pad" cy="73.6288" gorn="0.1.0.0.0.0.3.0.0.0.0.0.22"/>
        <circle cx="20.1632" fill="none" stroke-width="0.9216" stroke="black" r="1.2672" id="connector11pad" cy="80.8288" gorn="0.1.0.0.0.0.3.0.0.0.0.0.23"/>
        <circle cx="20.1632" fill="none" stroke-width="0.9216" stroke="black" r="1.2672" id="connector12pad" cy="88.0288" gorn="0.1.0.0.0.0.3.0.0.0.0.0.24"/>
        <circle cx="20.1632" fill="none" stroke-width="0.9216" stroke="black" r="1.2672" id="connector13pad" cy="95.2288" gorn="0.1.0.0.0.0.3.0.0.0.0.0.25"/>
        <circle cx="20.1632" fill="none" stroke-width="0.9216" stroke="black" r="1.2672" id="connector14pad" cy="102.429" gorn="0.1.0.0.0.0.3.0.0.0.0.0.26"/>
        <circle cx="20.1632" fill="none" stroke-width="0.9216" stroke="black" r="1.2672" id="connector4pad" cy="30.4288" gorn="0.1.0.0.0.0.3.0.0.0.0.0.27"/>
        <circle cx="20.1632" fill="none" stroke-width="0.9216" stroke="black" r="1.2672" id="connector5pad" cy="37.6288" gorn="0.1.0.0.0.0.3.0.0.0.0.0.28"/>
        <circle cx="20.1632" fill="none" stroke-width="0.9216" stroke="black" r="1.2672" id="connector6pad" cy="44.8288" gorn="0.1.0.0.0.0.3.0.0.0.0.0.29"/>
       </g>
      </g>
     </g>
    </g>
   </g>
  </g>
 </g>
 <g partID="58352">
  <g transform="translate(128.444,140.906)">
   <g transform="matrix(0,-1,1,0,0,0)">
    <g transform="matrix(1, 0, 0, 1, 1.46576, 28.116)">
     <g id="copper1">
      <g gorn="0.5.0.0">
       <g id="copper0" gorn="0.5.0.0.0">
        <g transform="matrix(1, 0, 0, 1, -1.6, -28.8)">
         <g>
          <g>
           <circle cx="5.04" d="M 99,70 C 99,86.016258 86.016258,99 70,99 53.983742,99 41,86.016258 41,70 41,53.983742 53.983742,41 70,41 86.016258,41 99,53.983742 99,70 z" fill="none" stroke-width="1.44" stroke="black" r="2.088" id="connector0pin" gorn="0.5.0.0.0.0.0.0" cy="5.04"/>
          </g>
         </g>
        </g>
        <g transform="matrix(1, 0, 0, 1, -1.6, -28.8)">
         <g>
          <g>
           <circle cx="5.04" d="m 99,170 c 0,16.01626 -12.983742,29 -29,29 -16.016258,0 -29,-12.98374 -29,-29 0,-16.01626 12.983742,-29 29,-29 16.016258,0 29,12.98374 29,29 z" fill="none" stroke-width="1.44" stroke="black" r="2.088" id="connector1pin" gorn="0.5.0.0.0.1.0.0" cy="12.24"/>
          </g>
         </g>
        </g>
        <g transform="matrix(1, 0, 0, 1, -1.6, -28.8)">
         <g>
          <g>
           <circle cx="5.04" d="m 99,270 c 0,16.01626 -12.983742,29 -29,29 -16.016258,0 -29,-12.98374 -29,-29 0,-16.01626 12.983742,-29 29,-29 16.016258,0 29,12.98374 29,29 z" fill="none" stroke-width="1.44" stroke="black" r="2.088" id="connector2pin" gorn="0.5.0.0.0.2.0.0" cy="19.44"/>
          </g>
         </g>
        </g>
        <g transform="matrix(1, 0, 0, 1, -1.6, -28.8)">
         <g>
          <g>
           <circle cx="5.04" d="m 99,370 c 0,16.01626 -12.983742,29 -29,29 -16.016258,0 -29,-12.98374 -29,-29 0,-16.01626 12.983742,-29 29,-29 16.016258,0 29,12.98374 29,29 z" fill="none" stroke-width="1.44" stroke="black" r="2.088" id="connector3pin" gorn="0.5.0.0.0.3.0.0" cy="26.64"/>
          </g>
         </g>
        </g>
        <g transform="matrix(1, 0, 0, 1, -1.6, -28.8)">
         <g>
          <g>
           <circle cx="5.04" d="M 99,70 C 99,86.016258 86.016258,99 70,99 53.983742,99 41,86.016258 41,70 41,53.983742 53.983742,41 70,41 86.016258,41 99,53.983742 99,70 z" fill="none" stroke-width="1.44" stroke="black" r="2.088" id="circle23" gorn="0.5.0.0.0.4.0.0" cy="5.04"/>
          </g>
         </g>
        </g>
        <g transform="matrix(1, 0, 0, 1, -1.6, -28.8)">
         <g>
          <g>
           <circle cx="5.04" d="m 99,170 c 0,16.01626 -12.983742,29 -29,29 -16.016258,0 -29,-12.98374 -29,-29 0,-16.01626 12.983742,-29 29,-29 16.016258,0 29,12.98374 29,29 z" fill="none" stroke-width="1.44" stroke="black" r="2.088" id="circle25" gorn="0.5.0.0.0.5.0.0" cy="12.24"/>
          </g>
         </g>
        </g>
        <g transform="matrix(1, 0, 0, 1, -1.6, -28.8)">
         <g>
          <g>
           <circle cx="5.04" d="m 99,270 c 0,16.01626 -12.983742,29 -29,29 -16.016258,0 -29,-12.98374 -29,-29 0,-16.01626 12.983742,-29 29,-29 16.016258,0 29,12.98374 29,29 z" fill="none" stroke-width="1.44" stroke="black" r="2.088" id="circle27" gorn="0.5.0.0.0.6.0.0" cy="19.44"/>
          </g>
         </g>
        </g>
        <g transform="matrix(1, 0, 0, 1, -1.6, -28.8)">
         <g>
          <g>
           <circle cx="5.04" d="m 99,370 c 0,16.01626 -12.983742,29 -29,29 -16.016258,0 -29,-12.98374 -29,-29 0,-16.01626 12.983742,-29 29,-29 16.016258,0 29,12.98374 29,29 z" fill="none" stroke-width="1.44" stroke="black" r="2.088" id="circle29" gorn="0.5.0.0.0.7.0.0" cy="26.64"/>
          </g>
         </g>
        </g>
        <g transform="matrix(1, 0, 0, 1, -8.80542, 0.671186)">
         <g>
          <g>
           <circle cx="12.24" d="m 199,370 c 0,16.01626 -12.98374,29 -29,29 -16.01626,0 -29,-12.98374 -29,-29 0,-16.01626 12.98374,-29 29,-29 16.01626,0 29,12.98374 29,29 z" fill="none" stroke-width="1.44" stroke="black" r="2.088" id="connector4pin" gorn="0.5.0.0.0.8.0.0" cy="26.64"/>
          </g>
         </g>
        </g>
        <g transform="matrix(1, 0, 0, 1, -8.80542, 0.671186)">
         <g>
          <g>
           <circle cx="12.24" d="m 199,270 c 0,16.01626 -12.98374,29 -29,29 -16.01626,0 -29,-12.98374 -29,-29 0,-16.01626 12.98374,-29 29,-29 16.01626,0 29,12.98374 29,29 z" fill="none" stroke-width="1.44" stroke="black" r="2.088" id="connector5pin" gorn="0.5.0.0.0.9.0.0" cy="19.44"/>
          </g>
         </g>
        </g>
        <g transform="matrix(1, 0, 0, 1, -8.80542, 0.671186)">
         <g>
          <g>
           <circle cx="12.24" d="m 199,170 c 0,16.01626 -12.98374,29 -29,29 -16.01626,0 -29,-12.98374 -29,-29 0,-16.01626 12.98374,-29 29,-29 16.01626,0 29,12.98374 29,29 z" fill="none" stroke-width="1.44" stroke="black" r="2.088" id="connector6pin" gorn="0.5.0.0.0.10.0.0" cy="12.24"/>
          </g>
         </g>
        </g>
        <g transform="matrix(1, 0, 0, 1, -8.80542, 0.671186)">
         <g>
          <g>
           <circle cx="12.24" d="m 199,70 c 0,16.016258 -12.98374,29 -29,29 -16.01626,0 -29,-12.983742 -29,-29 0,-16.016258 12.98374,-29 29,-29 16.01626,0 29,12.983742 29,29 z" fill="none" stroke-width="1.44" stroke="black" r="2.088" id="connector7pin" gorn="0.5.0.0.0.11.0.0" cy="5.04"/>
          </g>
         </g>
        </g>
       </g>
      </g>
     </g>
    </g>
   </g>
  </g>
 </g>
 <g partID="854100752">
  <g transform="translate(197.096,108.1)">
   <g transform="matrix(0,1,-1,0,0,0)">
    <g id="copper1" >
     <!-- <rect width="55" x="10" y="15.5" fill="none" height="55" stroke="rgb(255, 191, 0)" stroke-width="20" />  -->
     <circle cx="2.7" fill="none" stroke-width="1.44" stroke="black" r="1.98" id="connector0pin"  cy="3.096"/>
     <circle cx="31.5" fill="none" stroke-width="1.44" stroke="black" r="1.98" id="connector1pin"  cy="3.096"/>
    </g>
   </g>
  </g>
 </g>
 <g partID="854100822">
  <g transform="translate(143.096,61.3)">
   <g transform="matrix(0,1,-1,0,0,0)">
    <g id="copper1" >
     <!-- <rect width="55" x="10" y="15.5" fill="none" height="55" stroke="rgb(255, 191, 0)" stroke-width="20" />  -->
     <circle cx="2.7" fill="none" stroke-width="1.44" stroke="black" r="1.98" id="connector0pin"  cy="3.096"/>
     <circle cx="31.5" fill="none" stroke-width="1.44" stroke="black" r="1.98" id="connector1pin"  cy="3.096"/>
    </g>
   </g>
  </g>
 </g>
 <g partID="854101232">
  <g transform="translate(165.782,50.6382)">
   <g transform="matrix(0,-1,1,0,0,0)">
    <g id="copper1" >
     <g id="copper0" >
      <circle cx="2.56464" fill="none" stroke-width="1.44" r="1.62" stroke="black" id="connector0pad"  cy="10.2182"/>
      <circle cx="8.23824" fill="none" stroke-width="1.44" r="1.62" stroke="black" id="connector1pad"  cy="10.2182"/>
      <circle cx="13.8974" fill="none" stroke-width="1.44" r="1.62" stroke="black" id="connector2pad"  cy="10.2182"/>
      <circle cx="19.571" fill="none" stroke-width="1.44" r="1.62" stroke="black" id="connector3pad"  cy="10.2182"/>
     </g>
    </g>
   </g>
  </g>
 </g>
 <g partID="854101262">
  <g transform="translate(157.1,49.096)">
   <g transform="matrix(-1,0,0,-1,0,0)">
    <g id="copper1" >
     <!-- <rect width="55" x="10" y="15.5" fill="none" height="55" stroke="rgb(255, 191, 0)" stroke-width="20" />  -->
     <circle cx="2.7" fill="none" stroke-width="1.44" stroke="black" r="1.98" id="connector0pin"  cy="3.096"/>
     <circle cx="31.5" fill="none" stroke-width="1.44" stroke="black" r="1.98" id="connector1pin"  cy="3.096"/>
    </g>
   </g>
  </g>
 </g>
 <g partID="854101482">
  <g transform="translate(157.1,41.896)">
   <g transform="matrix(-1,0,0,-1,0,0)">
    <g id="copper1" >
     <!-- <rect width="55" x="10" y="15.5" fill="none" height="55" stroke="rgb(255, 191, 0)" stroke-width="20" />  -->
     <circle cx="2.7" fill="none" stroke-width="1.44" stroke="black" r="1.98" id="connector0pin"  cy="3.096"/>
     <circle cx="31.5" fill="none" stroke-width="1.44" stroke="black" r="1.98" id="connector1pin"  cy="3.096"/>
    </g>
   </g>
  </g>
 </g>
 <g partID="854101542">
  <g transform="translate(157.1,34.696)">
   <g transform="matrix(-1,0,0,-1,0,0)">
    <g id="copper1" >
     <!-- <rect width="55" x="10" y="15.5" fill="none" height="55" stroke="rgb(255, 191, 0)" stroke-width="20" />  -->
     <circle cx="2.7" fill="none" stroke-width="1.44" stroke="black" r="1.98" id="connector0pin"  cy="3.096"/>
     <circle cx="31.5" fill="none" stroke-width="1.44" stroke="black" r="1.98" id="connector1pin"  cy="3.096"/>
    </g>
   </g>
  </g>
 </g>
</svg>
