<?xml version='1.0' encoding='UTF-8' standalone='no'?>
<!-- Created with Fritzing (http://www.fritzing.org/) -->
<svg xmlns="http://www.w3.org/2000/svg" y="0in" xmlns:svg="http://www.w3.org/2000/svg" baseProfile="tiny" x="0in" version="1.2"  width="2.1811in" height="2.79528in" viewBox="0 0 157.039 201.26">
 <g partID="854122350">
  <g id="board" >
   <rect y="0.288" id="boardoutline" fill="none" x="0.288"  stroke="black" width="156.463" height="200.684" fill-opacity="0.5" stroke-width="0.5"/>
  </g>
 </g>
 <g partID="57800">
  <g transform="translate(138.296,141.115)">
   <g transform="matrix(-1,0,0,-1,0,0)">
    <g transform="matrix(1, 0, 0, 1, 53.104, 4.304)">
     <g id="copper0">
      <g transform="matrix(0.997054, 0, 0, 0.998472, -5.48398, 10.1258)">
       <g>
        <g gorn="0.1.0.0.0.0.3.0.0.0.0">
         <g id="copper1" gorn="0.1.0.0.0.0.3.0.0.0.0.0">
          <circle id="connector2pad" cx="20.1632" fill="black" cy="16.0288" gorn="0.1.0.0.0.0.3.0.0.0.0.0.0" r="1.2672" stroke="black" stroke-width="1.6416"/>
          <circle id="connector42pin" cx="-44.6368" fill="black" cy="1.6288" gorn="0.1.0.0.0.0.3.0.0.0.0.0.1" r="1.2672" stroke="black" stroke-width="1.6416"/>
          <circle id="connector41pin" cx="-44.6368" fill="black" cy="8.8288" gorn="0.1.0.0.0.0.3.0.0.0.0.0.2" r="1.2672" stroke="black" stroke-width="1.6416"/>
          <circle id="connector40pin" cx="-44.6368" fill="black" cy="16.0288" gorn="0.1.0.0.0.0.3.0.0.0.0.0.3" r="1.2672" stroke="black" stroke-width="1.6416"/>
          <circle id="connector39pin" cx="-44.6368" fill="black" cy="23.2288" gorn="0.1.0.0.0.0.3.0.0.0.0.0.4" r="1.2672" stroke="black" stroke-width="1.6416"/>
          <circle id="connector38pin" cx="-44.6368" fill="black" cy="30.4288" gorn="0.1.0.0.0.0.3.0.0.0.0.0.5" r="1.2672" stroke="black" stroke-width="1.6416"/>
          <circle id="connector1pad" cx="20.1632" fill="black" cy="8.8288" gorn="0.1.0.0.0.0.3.0.0.0.0.0.6" r="1.2672" stroke="black" stroke-width="1.6416"/>
          <circle id="connector0pad" cx="20.1632" fill="black" cy="1.6288" gorn="0.1.0.0.0.0.3.0.0.0.0.0.7" r="1.2672" stroke="black" stroke-width="1.6416"/>
          <circle id="connector3pad" cx="20.1632" fill="black" cy="23.2288" gorn="0.1.0.0.0.0.3.0.0.0.0.0.8" r="1.2672" stroke="black" stroke-width="1.6416"/>
          <circle id="connector37pin" cx="-44.6368" fill="black" cy="37.6288" gorn="0.1.0.0.0.0.3.0.0.0.0.0.9" r="1.2672" stroke="black" stroke-width="1.6416"/>
          <circle id="connector36pin" cx="-44.6368" fill="black" cy="44.8288" gorn="0.1.0.0.0.0.3.0.0.0.0.0.10" r="1.2672" stroke="black" stroke-width="1.6416"/>
          <circle id="connector35pin" cx="-44.6368" fill="black" cy="52.0288" gorn="0.1.0.0.0.0.3.0.0.0.0.0.11" r="1.2672" stroke="black" stroke-width="1.6416"/>
          <circle id="connector34pin" cx="-44.6368" fill="black" cy="59.2288" gorn="0.1.0.0.0.0.3.0.0.0.0.0.12" r="1.2672" stroke="black" stroke-width="1.6416"/>
          <circle id="connector33pin" cx="-44.6368" fill="black" cy="66.4288" gorn="0.1.0.0.0.0.3.0.0.0.0.0.13" r="1.2672" stroke="black" stroke-width="1.6416"/>
          <circle id="connector19pad" cx="-44.6368" fill="black" cy="73.6288" gorn="0.1.0.0.0.0.3.0.0.0.0.0.14" r="1.2672" stroke="black" stroke-width="1.6416"/>
          <circle id="connector18pad" cx="-44.6368" fill="black" cy="80.8288" gorn="0.1.0.0.0.0.3.0.0.0.0.0.15" r="1.2672" stroke="black" stroke-width="1.6416"/>
          <circle id="connector17pad" cx="-44.6368" fill="black" cy="88.0288" gorn="0.1.0.0.0.0.3.0.0.0.0.0.16" r="1.2672" stroke="black" stroke-width="1.6416"/>
          <circle id="connector16pad" cx="-44.6368" fill="black" cy="95.2288" gorn="0.1.0.0.0.0.3.0.0.0.0.0.17" r="1.2672" stroke="black" stroke-width="1.6416"/>
          <circle id="connector15pad" cx="-44.6368" fill="black" cy="102.429" gorn="0.1.0.0.0.0.3.0.0.0.0.0.18" r="1.2672" stroke="black" stroke-width="1.6416"/>
          <circle id="connector7pad" cx="20.1632" fill="black" cy="52.0288" gorn="0.1.0.0.0.0.3.0.0.0.0.0.19" r="1.2672" stroke="black" stroke-width="1.6416"/>
          <circle id="connector8pad" cx="20.1632" fill="black" cy="59.2288" gorn="0.1.0.0.0.0.3.0.0.0.0.0.20" r="1.2672" stroke="black" stroke-width="1.6416"/>
          <circle id="connector9pad" cx="20.1632" fill="black" cy="66.4288" gorn="0.1.0.0.0.0.3.0.0.0.0.0.21" r="1.2672" stroke="black" stroke-width="1.6416"/>
          <circle id="connector10pad" cx="20.1632" fill="black" cy="73.6288" gorn="0.1.0.0.0.0.3.0.0.0.0.0.22" r="1.2672" stroke="black" stroke-width="1.6416"/>
          <circle id="connector11pad" cx="20.1632" fill="black" cy="80.8288" gorn="0.1.0.0.0.0.3.0.0.0.0.0.23" r="1.2672" stroke="black" stroke-width="1.6416"/>
          <circle id="connector12pad" cx="20.1632" fill="black" cy="88.0288" gorn="0.1.0.0.0.0.3.0.0.0.0.0.24" r="1.2672" stroke="black" stroke-width="1.6416"/>
          <circle id="connector13pad" cx="20.1632" fill="black" cy="95.2288" gorn="0.1.0.0.0.0.3.0.0.0.0.0.25" r="1.2672" stroke="black" stroke-width="1.6416"/>
          <circle id="connector14pad" cx="20.1632" fill="black" cy="102.429" gorn="0.1.0.0.0.0.3.0.0.0.0.0.26" r="1.2672" stroke="black" stroke-width="1.6416"/>
          <circle id="connector4pad" cx="20.1632" fill="black" cy="30.4288" gorn="0.1.0.0.0.0.3.0.0.0.0.0.27" r="1.2672" stroke="black" stroke-width="1.6416"/>
          <circle id="connector5pad" cx="20.1632" fill="black" cy="37.6288" gorn="0.1.0.0.0.0.3.0.0.0.0.0.28" r="1.2672" stroke="black" stroke-width="1.6416"/>
          <circle id="connector6pad" cx="20.1632" fill="black" cy="44.8288" gorn="0.1.0.0.0.0.3.0.0.0.0.0.29" r="1.2672" stroke="black" stroke-width="1.6416"/>
         </g>
        </g>
       </g>
      </g>
     </g>
    </g>
   </g>
  </g>
 </g>
 <g partID="58350">
  <g transform="translate(139.728,145.474)">
   <g transform="matrix(0,1,-1,0,0,0)">
    <g transform="matrix(1, 0, 0, 1, 1.46576, 28.116)">
     <g id="copper0">
      <g gorn="0.5.0.0.0">
       <g transform="matrix(1, 0, 0, 1, -1.6, -28.8)">
        <g>
         <g>
          <circle id="connector0pin" cx="5.04" fill="black" cy="5.04" gorn="0.5.0.0.0.0.0.0" r="2.088" d="M 99,70 C 99,86.016258 86.016258,99 70,99 53.983742,99 41,86.016258 41,70 41,53.983742 53.983742,41 70,41 86.016258,41 99,53.983742 99,70 z" stroke="black" stroke-width="2.16"/>
         </g>
        </g>
       </g>
       <g transform="matrix(1, 0, 0, 1, -1.6, -28.8)">
        <g>
         <g>
          <circle id="connector1pin" cx="5.04" fill="black" cy="12.24" gorn="0.5.0.0.0.1.0.0" r="2.088" d="m 99,170 c 0,16.01626 -12.983742,29 -29,29 -16.016258,0 -29,-12.98374 -29,-29 0,-16.01626 12.983742,-29 29,-29 16.016258,0 29,12.98374 29,29 z" stroke="black" stroke-width="2.16"/>
         </g>
        </g>
       </g>
       <g transform="matrix(1, 0, 0, 1, -1.6, -28.8)">
        <g>
         <g>
          <circle id="connector2pin" cx="5.04" fill="black" cy="19.44" gorn="0.5.0.0.0.2.0.0" r="2.088" d="m 99,270 c 0,16.01626 -12.983742,29 -29,29 -16.016258,0 -29,-12.98374 -29,-29 0,-16.01626 12.983742,-29 29,-29 16.016258,0 29,12.98374 29,29 z" stroke="black" stroke-width="2.16"/>
         </g>
        </g>
       </g>
       <g transform="matrix(1, 0, 0, 1, -1.6, -28.8)">
        <g>
         <g>
          <circle id="connector3pin" cx="5.04" fill="black" cy="26.64" gorn="0.5.0.0.0.3.0.0" r="2.088" d="m 99,370 c 0,16.01626 -12.983742,29 -29,29 -16.016258,0 -29,-12.98374 -29,-29 0,-16.01626 12.983742,-29 29,-29 16.016258,0 29,12.98374 29,29 z" stroke="black" stroke-width="2.16"/>
         </g>
        </g>
       </g>
       <g transform="matrix(1, 0, 0, 1, -1.6, -28.8)">
        <g>
         <g>
          <circle id="circle23" cx="5.04" fill="black" cy="5.04" gorn="0.5.0.0.0.4.0.0" r="2.088" d="M 99,70 C 99,86.016258 86.016258,99 70,99 53.983742,99 41,86.016258 41,70 41,53.983742 53.983742,41 70,41 86.016258,41 99,53.983742 99,70 z" stroke="black" stroke-width="2.16"/>
         </g>
        </g>
       </g>
       <g transform="matrix(1, 0, 0, 1, -1.6, -28.8)">
        <g>
         <g>
          <circle id="circle25" cx="5.04" fill="black" cy="12.24" gorn="0.5.0.0.0.5.0.0" r="2.088" d="m 99,170 c 0,16.01626 -12.983742,29 -29,29 -16.016258,0 -29,-12.98374 -29,-29 0,-16.01626 12.983742,-29 29,-29 16.016258,0 29,12.98374 29,29 z" stroke="black" stroke-width="2.16"/>
         </g>
        </g>
       </g>
       <g transform="matrix(1, 0, 0, 1, -1.6, -28.8)">
        <g>
         <g>
          <circle id="circle27" cx="5.04" fill="black" cy="19.44" gorn="0.5.0.0.0.6.0.0" r="2.088" d="m 99,270 c 0,16.01626 -12.983742,29 -29,29 -16.016258,0 -29,-12.98374 -29,-29 0,-16.01626 12.983742,-29 29,-29 16.016258,0 29,12.98374 29,29 z" stroke="black" stroke-width="2.16"/>
         </g>
        </g>
       </g>
       <g transform="matrix(1, 0, 0, 1, -1.6, -28.8)">
        <g>
         <g>
          <circle id="circle29" cx="5.04" fill="black" cy="26.64" gorn="0.5.0.0.0.7.0.0" r="2.088" d="m 99,370 c 0,16.01626 -12.983742,29 -29,29 -16.016258,0 -29,-12.98374 -29,-29 0,-16.01626 12.983742,-29 29,-29 16.016258,0 29,12.98374 29,29 z" stroke="black" stroke-width="2.16"/>
         </g>
        </g>
       </g>
       <g transform="matrix(1, 0, 0, 1, -8.80542, 0.671186)">
        <g>
         <g>
          <circle id="connector4pin" cx="12.24" fill="black" cy="26.64" gorn="0.5.0.0.0.8.0.0" r="2.088" d="m 199,370 c 0,16.01626 -12.98374,29 -29,29 -16.01626,0 -29,-12.98374 -29,-29 0,-16.01626 12.98374,-29 29,-29 16.01626,0 29,12.98374 29,29 z" stroke="black" stroke-width="2.16"/>
         </g>
        </g>
       </g>
       <g transform="matrix(1, 0, 0, 1, -8.80542, 0.671186)">
        <g>
         <g>
          <circle id="connector5pin" cx="12.24" fill="black" cy="19.44" gorn="0.5.0.0.0.9.0.0" r="2.088" d="m 199,270 c 0,16.01626 -12.98374,29 -29,29 -16.01626,0 -29,-12.98374 -29,-29 0,-16.01626 12.98374,-29 29,-29 16.01626,0 29,12.98374 29,29 z" stroke="black" stroke-width="2.16"/>
         </g>
        </g>
       </g>
       <g transform="matrix(1, 0, 0, 1, -8.80542, 0.671186)">
        <g>
         <g>
          <circle id="connector6pin" cx="12.24" fill="black" cy="12.24" gorn="0.5.0.0.0.10.0.0" r="2.088" d="m 199,170 c 0,16.01626 -12.98374,29 -29,29 -16.01626,0 -29,-12.98374 -29,-29 0,-16.01626 12.98374,-29 29,-29 16.01626,0 29,12.98374 29,29 z" stroke="black" stroke-width="2.16"/>
         </g>
        </g>
       </g>
       <g transform="matrix(1, 0, 0, 1, -8.80542, 0.671186)">
        <g>
         <g>
          <circle id="connector7pin" cx="12.24" fill="black" cy="5.04" gorn="0.5.0.0.0.11.0.0" r="2.088" d="m 199,70 c 0,16.016258 -12.98374,29 -29,29 -16.01626,0 -29,-12.983742 -29,-29 0,-16.016258 12.98374,-29 29,-29 16.01626,0 29,12.983742 29,29 z" stroke="black" stroke-width="2.16"/>
         </g>
        </g>
       </g>
      </g>
     </g>
    </g>
   </g>
  </g>
 </g>
 <g partID="854100750">
  <g transform="translate(143.076,117.08)">
   <g transform="matrix(0,-1,1,0,0,0)">
    <g id="copper0" >
     <g id="copper1" >
      <!-- <rect width="55" x="10" y="15.5" fill="none" height="55" stroke="rgb(255, 191, 0)" stroke-width="20" />  -->
      <circle id="connector0pin" cx="2.7" fill="black" cy="3.096" r="1.98"  stroke="black" stroke-width="2.16"/>
      <circle id="connector1pin" cx="31.5" fill="black" cy="3.096" r="1.98"  stroke="black" stroke-width="2.16"/>
     </g>
    </g>
   </g>
  </g>
 </g>
 <g partID="854100820">
  <g transform="translate(143.076,156.68)">
   <g transform="matrix(0,-1,1,0,0,0)">
    <g id="copper0" >
     <g id="copper1" >
      <!-- <rect width="55" x="10" y="15.5" fill="none" height="55" stroke="rgb(255, 191, 0)" stroke-width="20" />  -->
      <circle id="connector0pin" cx="2.7" fill="black" cy="3.096" r="1.98"  stroke="black" stroke-width="2.16"/>
      <circle id="connector1pin" cx="31.5" fill="black" cy="3.096" r="1.98"  stroke="black" stroke-width="2.16"/>
     </g>
    </g>
   </g>
  </g>
 </g>
 <g partID="854101230">
  <g transform="translate(62.3364,66.9978)">
   <g transform="matrix(-1,0,0,-1,0,0)">
    <g id="copper0" >
     <circle id="connector0pad" cx="2.56464" cy="10.2182" fill="black" r="1.62"  stroke="black" stroke-width="2.16"/>
     <circle id="connector1pad" cx="8.23824" cy="10.2182" fill="black" r="1.62"  stroke="black" stroke-width="2.16"/>
     <circle id="connector2pad" cx="13.8974" cy="10.2182" fill="black" r="1.62"  stroke="black" stroke-width="2.16"/>
     <circle id="connector3pad" cx="19.571" cy="10.2182" fill="black" r="1.62"  stroke="black" stroke-width="2.16"/>
    </g>
   </g>
  </g>
 </g>
 <g partID="854101540">
  <g transform="translate(41.2678,86.4796)">
   <g transform="matrix(0,1,-1,0,0,0)">
    <g id="copper0" >
     <g id="copper1" >
      <!-- <rect width="55" x="10" y="15.5" fill="none" height="55" stroke="rgb(255, 191, 0)" stroke-width="20" />  -->
      <circle id="connector0pin" cx="2.7" fill="black" cy="3.096" r="1.98"  stroke="black" stroke-width="2.16"/>
      <circle id="connector1pin" cx="31.5" fill="black" cy="3.096" r="1.98"  stroke="black" stroke-width="2.16"/>
     </g>
    </g>
   </g>
  </g>
 </g>
 <g partID="854101480">
  <g transform="translate(52.0678,79.2796)">
   <g transform="matrix(0,1,-1,0,0,0)">
    <g id="copper0" >
     <g id="copper1" >
      <!-- <rect width="55" x="10" y="15.5" fill="none" height="55" stroke="rgb(255, 191, 0)" stroke-width="20" />  -->
      <circle id="connector0pin" cx="2.7" fill="black" cy="3.096" r="1.98"  stroke="black" stroke-width="2.16"/>
      <circle id="connector1pin" cx="31.5" fill="black" cy="3.096" r="1.98"  stroke="black" stroke-width="2.16"/>
     </g>
    </g>
   </g>
  </g>
 </g>
 <g partID="854101260">
  <g transform="translate(62.8678,72.0796)">
   <g transform="matrix(0,1,-1,0,0,0)">
    <g id="copper0" >
     <g id="copper1" >
      <!-- <rect width="55" x="10" y="15.5" fill="none" height="55" stroke="rgb(255, 191, 0)" stroke-width="20" />  -->
      <circle id="connector0pin" cx="2.7" fill="black" cy="3.096" r="1.98"  stroke="black" stroke-width="2.16"/>
      <circle id="connector1pin" cx="31.5" fill="black" cy="3.096" r="1.98"  stroke="black" stroke-width="2.16"/>
     </g>
    </g>
   </g>
  </g>
 </g>
 <g partID="854137010">
  <g transform="translate(140.036,36.2442)">
   <g id="copper0" >
    <circle id="nonconn0" cx="6.13543" fill="black" cy="6.13543" r="4.53543"  stroke="black" stroke-width="0.72"/>
   </g>
  </g>
 </g>
 <g partID="854137390">
  <g transform="translate(122.036,183.844)">
   <g id="copper0" >
    <circle id="nonconn0" cx="6.13543" fill="black" cy="6.13543" r="4.53543"  stroke="black" stroke-width="0.72"/>
   </g>
  </g>
 </g>
 <g partID="854137370">
  <g transform="translate(3.23636,39.8442)">
   <g id="copper0" >
    <circle id="nonconn0" cx="6.13543" fill="black" cy="6.13543" r="4.53543"  stroke="black" stroke-width="0.72"/>
   </g>
  </g>
 </g>
 <g partID="854137410">
  <g transform="translate(46.4364,183.844)">
   <g id="copper0" >
    <circle id="nonconn0" cx="6.13543" fill="black" cy="6.13543" r="4.53543"  stroke="black" stroke-width="0.72"/>
   </g>
  </g>
 </g>
</svg>
